<?xml version="1.0" encoding="utf-8" standalone="no"?>
<!DOCTYPE svg PUBLIC "-//W3C//DTD SVG 1.1//EN"
  "http://www.w3.org/Graphics/SVG/1.1/DTD/svg11.dtd">
<svg xmlns:xlink="http://www.w3.org/1999/xlink" width="506.6725pt" height="310.4275pt" viewBox="0 0 506.6725 310.4275" xmlns="http://www.w3.org/2000/svg" version="1.1">
 <metadata>
  <rdf:RDF xmlns:dc="http://purl.org/dc/elements/1.1/" xmlns:cc="http://creativecommons.org/ns#" xmlns:rdf="http://www.w3.org/1999/02/22-rdf-syntax-ns#">
   <cc:Work>
    <dc:type rdf:resource="http://purl.org/dc/dcmitype/StillImage"/>
    <dc:date>2026-02-19T10:34:10.251433</dc:date>
    <dc:format>image/svg+xml</dc:format>
    <dc:creator>
     <cc:Agent>
      <dc:title>Matplotlib v3.9.1, https://matplotlib.org/</dc:title>
     </cc:Agent>
    </dc:creator>
   </cc:Work>
  </rdf:RDF>
 </metadata>
 <defs>
  <style type="text/css">*{stroke-linejoin: round; stroke-linecap: butt}</style>
 </defs>
 <g id="figure_1">
  <g id="patch_1">
   <path d="M 0 310.4275 
L 506.6725 310.4275 
L 506.6725 0 
L 0 0 
z
" style="fill: #ffffff"/>
  </g>
  <g id="axes_1">
   <g id="patch_2">
    <path d="M 53.0725 264.58 
L 499.4725 264.58 
L 499.4725 42.82 
L 53.0725 42.82 
z
" style="fill: #ffffff"/>
   </g>
   <g id="patch_3">
    <path d="M 238.600986 264.58 
L 283.270766 264.58 
L 283.270766 42.82 
L 238.600986 42.82 
z
" clip-path="url(#p95d1ccc5c8)" style="fill: #3498db; opacity: 0.45"/>
   </g>
   <g id="matplotlib.axis_1">
    <g id="xtick_1">
     <g id="line2d_1">
      <defs>
       <path id="m80b6c936c9" d="M 0 0 
L 0 -4 
" style="stroke: #000000; stroke-width: 1.2"/>
      </defs>
      <g>
       <use xlink:href="#m80b6c936c9" x="53.0725" y="264.58" style="stroke: #000000; stroke-width: 1.2"/>
      </g>
     </g>
     <g id="line2d_2">
      <defs>
       <path id="m1bb7951d6d" d="M 0 0 
L 0 4 
" style="stroke: #000000; stroke-width: 1.2"/>
      </defs>
      <g>
       <use xlink:href="#m1bb7951d6d" x="53.0725" y="42.82" style="stroke: #000000; stroke-width: 1.2"/>
      </g>
     </g>
     <g id="text_1">
      <g id="patch_4">
       <path d="M 44.43175 288.4045 
L 61.71325 288.4045 
L 61.71325 265.388 
L 44.43175 265.388 
z
" style="fill: #ffffff; stroke: #ffffff; stroke-linejoin: miter"/>
      </g>
      <path d="M 49.28875 275.385 
Q 49.28875 273.3525 49.70625 272.115 
Q 50.12375 270.875 50.94625 270.205 
Q 51.77125 269.5325 53.02125 269.5325 
Q 53.94375 269.5325 54.63875 269.905 
Q 55.33375 270.275 55.78625 270.975 
Q 56.24125 271.6725 56.49875 272.6775 
Q 56.75625 273.68 56.75625 275.385 
Q 56.75625 277.4 56.34125 278.6375 
Q 55.92875 279.875 55.10375 280.5525 
Q 54.28125 281.2275 53.02125 281.2275 
Q 51.36625 281.2275 50.42125 280.04 
Q 49.28875 278.61 49.28875 275.385 
z
M 50.73375 275.385 
Q 50.73375 278.205 51.39375 279.14 
Q 52.05375 280.0725 53.02125 280.0725 
Q 53.99125 280.0725 54.65125 279.135 
Q 55.31125 278.1975 55.31125 275.385 
Q 55.31125 272.555 54.65125 271.6275 
Q 53.99125 270.6975 53.00625 270.6975 
Q 52.03875 270.6975 51.45875 271.5175 
Q 50.73375 272.5625 50.73375 275.385 
z
" style="stroke: #ffffff"/>
      <path d="M 49.28875 275.385 
Q 49.28875 273.3525 49.70625 272.115 
Q 50.12375 270.875 50.94625 270.205 
Q 51.77125 269.5325 53.02125 269.5325 
Q 53.94375 269.5325 54.63875 269.905 
Q 55.33375 270.275 55.78625 270.975 
Q 56.24125 271.6725 56.49875 272.6775 
Q 56.75625 273.68 56.75625 275.385 
Q 56.75625 277.4 56.34125 278.6375 
Q 55.92875 279.875 55.10375 280.5525 
Q 54.28125 281.2275 53.02125 281.2275 
Q 51.36625 281.2275 50.42125 280.04 
Q 49.28875 278.61 49.28875 275.385 
z
M 50.73375 275.385 
Q 50.73375 278.205 51.39375 279.14 
Q 52.05375 280.0725 53.02125 280.0725 
Q 53.99125 280.0725 54.65125 279.135 
Q 55.31125 278.1975 55.31125 275.385 
Q 55.31125 272.555 54.65125 271.6275 
Q 53.99125 270.6975 53.00625 270.6975 
Q 52.03875 270.6975 51.45875 271.5175 
Q 50.73375 272.5625 50.73375 275.385 
z
"/>
     </g>
    </g>
    <g id="xtick_2">
     <g id="line2d_3">
      <g>
       <use xlink:href="#m80b6c936c9" x="127.522133" y="264.58" style="stroke: #000000; stroke-width: 1.2"/>
      </g>
     </g>
     <g id="line2d_4">
      <g>
       <use xlink:href="#m1bb7951d6d" x="127.522133" y="42.82" style="stroke: #000000; stroke-width: 1.2"/>
      </g>
     </g>
     <g id="text_2">
      <g id="patch_5">
       <path d="M 118.881383 288.4045 
L 136.162883 288.4045 
L 136.162883 265.388 
L 118.881383 265.388 
z
" style="fill: #ffffff; stroke: #ffffff; stroke-linejoin: miter"/>
      </g>
      <path d="M 123.738383 278.0325 
L 125.213383 277.9075 
Q 125.378383 278.985 125.975883 279.53 
Q 126.573383 280.0725 127.418383 280.0725 
Q 128.433383 280.0725 129.135883 279.3075 
Q 129.838383 278.54 129.838383 277.275 
Q 129.838383 276.0725 129.163383 275.3775 
Q 128.488383 274.68 127.393383 274.68 
Q 126.713383 274.68 126.165883 274.99 
Q 125.620883 275.2975 125.308383 275.79 
L 123.988383 275.6175 
L 125.095883 269.735 
L 130.793383 269.735 
L 130.793383 271.08 
L 126.220883 271.08 
L 125.605883 274.1575 
Q 126.635883 273.4375 127.768383 273.4375 
Q 129.268383 273.4375 130.298383 274.4775 
Q 131.330883 275.5175 131.330883 277.15 
Q 131.330883 278.705 130.425883 279.8375 
Q 129.323383 281.2275 127.418383 281.2275 
Q 125.855883 281.2275 124.865883 280.3525 
Q 123.878383 279.4775 123.738383 278.0325 
z
" style="stroke: #ffffff"/>
      <path d="M 123.738383 278.0325 
L 125.213383 277.9075 
Q 125.378383 278.985 125.975883 279.53 
Q 126.573383 280.0725 127.418383 280.0725 
Q 128.433383 280.0725 129.135883 279.3075 
Q 129.838383 278.54 129.838383 277.275 
Q 129.838383 276.0725 129.163383 275.3775 
Q 128.488383 274.68 127.393383 274.68 
Q 126.713383 274.68 126.165883 274.99 
Q 125.620883 275.2975 125.308383 275.79 
L 123.988383 275.6175 
L 125.095883 269.735 
L 130.793383 269.735 
L 130.793383 271.08 
L 126.220883 271.08 
L 125.605883 274.1575 
Q 126.635883 273.4375 127.768383 273.4375 
Q 129.268383 273.4375 130.298383 274.4775 
Q 131.330883 275.5175 131.330883 277.15 
Q 131.330883 278.705 130.425883 279.8375 
Q 129.323383 281.2275 127.418383 281.2275 
Q 125.855883 281.2275 124.865883 280.3525 
Q 123.878383 279.4775 123.738383 278.0325 
z
"/>
     </g>
    </g>
    <g id="xtick_3">
     <g id="line2d_5">
      <g>
       <use xlink:href="#m80b6c936c9" x="201.971766" y="264.58" style="stroke: #000000; stroke-width: 1.2"/>
      </g>
     </g>
     <g id="line2d_6">
      <g>
       <use xlink:href="#m1bb7951d6d" x="201.971766" y="42.82" style="stroke: #000000; stroke-width: 1.2"/>
      </g>
     </g>
     <g id="text_3">
      <g id="patch_6">
       <path d="M 188.882266 288.4045 
L 215.061266 288.4045 
L 215.061266 265.388 
L 188.882266 265.388 
z
" style="fill: #ffffff; stroke: #ffffff; stroke-linejoin: miter"/>
      </g>
      <path d="M 199.034266 281.0325 
L 197.629266 281.0325 
L 197.629266 272.0725 
Q 197.121766 272.555 196.296766 273.04 
Q 195.471766 273.525 194.816766 273.7675 
L 194.816766 272.4075 
Q 195.996766 271.8525 196.879266 271.065 
Q 197.761766 270.275 198.129266 269.5325 
L 199.034266 269.5325 
L 199.034266 281.0325 
z
M 202.637704 275.385 
Q 202.637704 273.3525 203.055204 272.115 
Q 203.472704 270.875 204.295204 270.205 
Q 205.120204 269.5325 206.370204 269.5325 
Q 207.292704 269.5325 207.987704 269.905 
Q 208.682704 270.275 209.135204 270.975 
Q 209.590204 271.6725 209.847704 272.6775 
Q 210.105204 273.68 210.105204 275.385 
Q 210.105204 277.4 209.690204 278.6375 
Q 209.277704 279.875 208.452704 280.5525 
Q 207.630204 281.2275 206.370204 281.2275 
Q 204.715204 281.2275 203.770204 280.04 
Q 202.637704 278.61 202.637704 275.385 
z
M 204.082704 275.385 
Q 204.082704 278.205 204.742704 279.14 
Q 205.402704 280.0725 206.370204 280.0725 
Q 207.340204 280.0725 208.000204 279.135 
Q 208.660204 278.1975 208.660204 275.385 
Q 208.660204 272.555 208.000204 271.6275 
Q 207.340204 270.6975 206.355204 270.6975 
Q 205.387704 270.6975 204.807704 271.5175 
Q 204.082704 272.5625 204.082704 275.385 
z
" style="stroke: #ffffff"/>
      <path d="M 199.034266 281.0325 
L 197.629266 281.0325 
L 197.629266 272.0725 
Q 197.121766 272.555 196.296766 273.04 
Q 195.471766 273.525 194.816766 273.7675 
L 194.816766 272.4075 
Q 195.996766 271.8525 196.879266 271.065 
Q 197.761766 270.275 198.129266 269.5325 
L 199.034266 269.5325 
L 199.034266 281.0325 
z
M 202.637704 275.385 
Q 202.637704 273.3525 203.055204 272.115 
Q 203.472704 270.875 204.295204 270.205 
Q 205.120204 269.5325 206.370204 269.5325 
Q 207.292704 269.5325 207.987704 269.905 
Q 208.682704 270.275 209.135204 270.975 
Q 209.590204 271.6725 209.847704 272.6775 
Q 210.105204 273.68 210.105204 275.385 
Q 210.105204 277.4 209.690204 278.6375 
Q 209.277704 279.875 208.452704 280.5525 
Q 207.630204 281.2275 206.370204 281.2275 
Q 204.715204 281.2275 203.770204 280.04 
Q 202.637704 278.61 202.637704 275.385 
z
M 204.082704 275.385 
Q 204.082704 278.205 204.742704 279.14 
Q 205.402704 280.0725 206.370204 280.0725 
Q 207.340204 280.0725 208.000204 279.135 
Q 208.660204 278.1975 208.660204 275.385 
Q 208.660204 272.555 208.000204 271.6275 
Q 207.340204 270.6975 206.355204 270.6975 
Q 205.387704 270.6975 204.807704 271.5175 
Q 204.082704 272.5625 204.082704 275.385 
z
"/>
     </g>
    </g>
    <g id="xtick_4">
     <g id="line2d_7">
      <g>
       <use xlink:href="#m80b6c936c9" x="276.421399" y="264.58" style="stroke: #000000; stroke-width: 1.2"/>
      </g>
     </g>
     <g id="line2d_8">
      <g>
       <use xlink:href="#m1bb7951d6d" x="276.421399" y="42.82" style="stroke: #000000; stroke-width: 1.2"/>
      </g>
     </g>
     <g id="text_4">
      <g id="patch_7">
       <path d="M 263.331899 288.4045 
L 289.510899 288.4045 
L 289.510899 265.388 
L 263.331899 265.388 
z
" style="fill: #ffffff; stroke: #ffffff; stroke-linejoin: miter"/>
      </g>
      <path d="M 273.483899 281.0325 
L 272.078899 281.0325 
L 272.078899 272.0725 
Q 271.571399 272.555 270.746399 273.04 
Q 269.921399 273.525 269.266399 273.7675 
L 269.266399 272.4075 
Q 270.446399 271.8525 271.328899 271.065 
Q 272.211399 270.275 272.578899 269.5325 
L 273.483899 269.5325 
L 273.483899 281.0325 
z
M 277.087337 278.0325 
L 278.562337 277.9075 
Q 278.727337 278.985 279.324837 279.53 
Q 279.922337 280.0725 280.767337 280.0725 
Q 281.782337 280.0725 282.484837 279.3075 
Q 283.187337 278.54 283.187337 277.275 
Q 283.187337 276.0725 282.512337 275.3775 
Q 281.837337 274.68 280.742337 274.68 
Q 280.062337 274.68 279.514837 274.99 
Q 278.969837 275.2975 278.657337 275.79 
L 277.337337 275.6175 
L 278.444837 269.735 
L 284.142337 269.735 
L 284.142337 271.08 
L 279.569837 271.08 
L 278.954837 274.1575 
Q 279.984837 273.4375 281.117337 273.4375 
Q 282.617337 273.4375 283.647337 274.4775 
Q 284.679837 275.5175 284.679837 277.15 
Q 284.679837 278.705 283.774837 279.8375 
Q 282.672337 281.2275 280.767337 281.2275 
Q 279.204837 281.2275 278.214837 280.3525 
Q 277.227337 279.4775 277.087337 278.0325 
z
" style="stroke: #ffffff"/>
      <path d="M 273.483899 281.0325 
L 272.078899 281.0325 
L 272.078899 272.0725 
Q 271.571399 272.555 270.746399 273.04 
Q 269.921399 273.525 269.266399 273.7675 
L 269.266399 272.4075 
Q 270.446399 271.8525 271.328899 271.065 
Q 272.211399 270.275 272.578899 269.5325 
L 273.483899 269.5325 
L 273.483899 281.0325 
z
M 277.087337 278.0325 
L 278.562337 277.9075 
Q 278.727337 278.985 279.324837 279.53 
Q 279.922337 280.0725 280.767337 280.0725 
Q 281.782337 280.0725 282.484837 279.3075 
Q 283.187337 278.54 283.187337 277.275 
Q 283.187337 276.0725 282.512337 275.3775 
Q 281.837337 274.68 280.742337 274.68 
Q 280.062337 274.68 279.514837 274.99 
Q 278.969837 275.2975 278.657337 275.79 
L 277.337337 275.6175 
L 278.444837 269.735 
L 284.142337 269.735 
L 284.142337 271.08 
L 279.569837 271.08 
L 278.954837 274.1575 
Q 279.984837 273.4375 281.117337 273.4375 
Q 282.617337 273.4375 283.647337 274.4775 
Q 284.679837 275.5175 284.679837 277.15 
Q 284.679837 278.705 283.774837 279.8375 
Q 282.672337 281.2275 280.767337 281.2275 
Q 279.204837 281.2275 278.214837 280.3525 
Q 277.227337 279.4775 277.087337 278.0325 
z
"/>
     </g>
    </g>
    <g id="xtick_5">
     <g id="line2d_9">
      <g>
       <use xlink:href="#m80b6c936c9" x="350.871032" y="264.58" style="stroke: #000000; stroke-width: 1.2"/>
      </g>
     </g>
     <g id="line2d_10">
      <g>
       <use xlink:href="#m1bb7951d6d" x="350.871032" y="42.82" style="stroke: #000000; stroke-width: 1.2"/>
      </g>
     </g>
     <g id="text_5">
      <g id="patch_8">
       <path d="M 337.781532 288.4045 
L 363.960532 288.4045 
L 363.960532 265.388 
L 337.781532 265.388 
z
" style="fill: #ffffff; stroke: #ffffff; stroke-linejoin: miter"/>
      </g>
      <path d="M 350.028532 279.68 
L 350.028532 281.0325 
L 342.458532 281.0325 
Q 342.443532 280.525 342.621032 280.055 
Q 342.911032 279.2825 343.546032 278.5325 
Q 344.183532 277.7825 345.388532 276.7975 
Q 347.256032 275.2675 347.911032 274.3725 
Q 348.568532 273.4775 348.568532 272.68 
Q 348.568532 271.845 347.968532 271.2725 
Q 347.371032 270.6975 346.411032 270.6975 
Q 345.396032 270.6975 344.786032 271.3075 
Q 344.176032 271.915 344.168532 272.9925 
L 342.723532 272.845 
Q 342.871032 271.2275 343.838532 270.38 
Q 344.808532 269.5325 346.443532 269.5325 
Q 348.091032 269.5325 349.051032 270.4475 
Q 350.013532 271.36 350.013532 272.7125 
Q 350.013532 273.4 349.731032 274.065 
Q 349.451032 274.7275 348.798532 275.4625 
Q 348.146032 276.1975 346.631032 277.4775 
Q 345.363532 278.54 345.003532 278.92 
Q 344.646032 279.2975 344.411032 279.68 
L 350.028532 279.68 
z
M 351.53697 275.385 
Q 351.53697 273.3525 351.95447 272.115 
Q 352.37197 270.875 353.19447 270.205 
Q 354.01947 269.5325 355.26947 269.5325 
Q 356.19197 269.5325 356.88697 269.905 
Q 357.58197 270.275 358.03447 270.975 
Q 358.48947 271.6725 358.74697 272.6775 
Q 359.00447 273.68 359.00447 275.385 
Q 359.00447 277.4 358.58947 278.6375 
Q 358.17697 279.875 357.35197 280.5525 
Q 356.52947 281.2275 355.26947 281.2275 
Q 353.61447 281.2275 352.66947 280.04 
Q 351.53697 278.61 351.53697 275.385 
z
M 352.98197 275.385 
Q 352.98197 278.205 353.64197 279.14 
Q 354.30197 280.0725 355.26947 280.0725 
Q 356.23947 280.0725 356.89947 279.135 
Q 357.55947 278.1975 357.55947 275.385 
Q 357.55947 272.555 356.89947 271.6275 
Q 356.23947 270.6975 355.25447 270.6975 
Q 354.28697 270.6975 353.70697 271.5175 
Q 352.98197 272.5625 352.98197 275.385 
z
" style="stroke: #ffffff"/>
      <path d="M 350.028532 279.68 
L 350.028532 281.0325 
L 342.458532 281.0325 
Q 342.443532 280.525 342.621032 280.055 
Q 342.911032 279.2825 343.546032 278.5325 
Q 344.183532 277.7825 345.388532 276.7975 
Q 347.256032 275.2675 347.911032 274.3725 
Q 348.568532 273.4775 348.568532 272.68 
Q 348.568532 271.845 347.968532 271.2725 
Q 347.371032 270.6975 346.411032 270.6975 
Q 345.396032 270.6975 344.786032 271.3075 
Q 344.176032 271.915 344.168532 272.9925 
L 342.723532 272.845 
Q 342.871032 271.2275 343.838532 270.38 
Q 344.808532 269.5325 346.443532 269.5325 
Q 348.091032 269.5325 349.051032 270.4475 
Q 350.013532 271.36 350.013532 272.7125 
Q 350.013532 273.4 349.731032 274.065 
Q 349.451032 274.7275 348.798532 275.4625 
Q 348.146032 276.1975 346.631032 277.4775 
Q 345.363532 278.54 345.003532 278.92 
Q 344.646032 279.2975 344.411032 279.68 
L 350.028532 279.68 
z
M 351.53697 275.385 
Q 351.53697 273.3525 351.95447 272.115 
Q 352.37197 270.875 353.19447 270.205 
Q 354.01947 269.5325 355.26947 269.5325 
Q 356.19197 269.5325 356.88697 269.905 
Q 357.58197 270.275 358.03447 270.975 
Q 358.48947 271.6725 358.74697 272.6775 
Q 359.00447 273.68 359.00447 275.385 
Q 359.00447 277.4 358.58947 278.6375 
Q 358.17697 279.875 357.35197 280.5525 
Q 356.52947 281.2275 355.26947 281.2275 
Q 353.61447 281.2275 352.66947 280.04 
Q 351.53697 278.61 351.53697 275.385 
z
M 352.98197 275.385 
Q 352.98197 278.205 353.64197 279.14 
Q 354.30197 280.0725 355.26947 280.0725 
Q 356.23947 280.0725 356.89947 279.135 
Q 357.55947 278.1975 357.55947 275.385 
Q 357.55947 272.555 356.89947 271.6275 
Q 356.23947 270.6975 355.25447 270.6975 
Q 354.28697 270.6975 353.70697 271.5175 
Q 352.98197 272.5625 352.98197 275.385 
z
"/>
     </g>
    </g>
    <g id="xtick_6">
     <g id="line2d_11">
      <g>
       <use xlink:href="#m80b6c936c9" x="425.320665" y="264.58" style="stroke: #000000; stroke-width: 1.2"/>
      </g>
     </g>
     <g id="line2d_12">
      <g>
       <use xlink:href="#m1bb7951d6d" x="425.320665" y="42.82" style="stroke: #000000; stroke-width: 1.2"/>
      </g>
     </g>
     <g id="text_6">
      <g id="patch_9">
       <path d="M 412.231165 288.4045 
L 438.410165 288.4045 
L 438.410165 265.388 
L 412.231165 265.388 
z
" style="fill: #ffffff; stroke: #ffffff; stroke-linejoin: miter"/>
      </g>
      <path d="M 424.478165 279.68 
L 424.478165 281.0325 
L 416.908165 281.0325 
Q 416.893165 280.525 417.070665 280.055 
Q 417.360665 279.2825 417.995665 278.5325 
Q 418.633165 277.7825 419.838165 276.7975 
Q 421.705665 275.2675 422.360665 274.3725 
Q 423.018165 273.4775 423.018165 272.68 
Q 423.018165 271.845 422.418165 271.2725 
Q 421.820665 270.6975 420.860665 270.6975 
Q 419.845665 270.6975 419.235665 271.3075 
Q 418.625665 271.915 418.618165 272.9925 
L 417.173165 272.845 
Q 417.320665 271.2275 418.288165 270.38 
Q 419.258165 269.5325 420.893165 269.5325 
Q 422.540665 269.5325 423.500665 270.4475 
Q 424.463165 271.36 424.463165 272.7125 
Q 424.463165 273.4 424.180665 274.065 
Q 423.900665 274.7275 423.248165 275.4625 
Q 422.595665 276.1975 421.080665 277.4775 
Q 419.813165 278.54 419.453165 278.92 
Q 419.095665 279.2975 418.860665 279.68 
L 424.478165 279.68 
z
M 425.986603 278.0325 
L 427.461603 277.9075 
Q 427.626603 278.985 428.224103 279.53 
Q 428.821603 280.0725 429.666603 280.0725 
Q 430.681603 280.0725 431.384103 279.3075 
Q 432.086603 278.54 432.086603 277.275 
Q 432.086603 276.0725 431.411603 275.3775 
Q 430.736603 274.68 429.641603 274.68 
Q 428.961603 274.68 428.414103 274.99 
Q 427.869103 275.2975 427.556603 275.79 
L 426.236603 275.6175 
L 427.344103 269.735 
L 433.041603 269.735 
L 433.041603 271.08 
L 428.469103 271.08 
L 427.854103 274.1575 
Q 428.884103 273.4375 430.016603 273.4375 
Q 431.516603 273.4375 432.546603 274.4775 
Q 433.579103 275.5175 433.579103 277.15 
Q 433.579103 278.705 432.674103 279.8375 
Q 431.571603 281.2275 429.666603 281.2275 
Q 428.104103 281.2275 427.114103 280.3525 
Q 426.126603 279.4775 425.986603 278.0325 
z
" style="stroke: #ffffff"/>
      <path d="M 424.478165 279.68 
L 424.478165 281.0325 
L 416.908165 281.0325 
Q 416.893165 280.525 417.070665 280.055 
Q 417.360665 279.2825 417.995665 278.5325 
Q 418.633165 277.7825 419.838165 276.7975 
Q 421.705665 275.2675 422.360665 274.3725 
Q 423.018165 273.4775 423.018165 272.68 
Q 423.018165 271.845 422.418165 271.2725 
Q 421.820665 270.6975 420.860665 270.6975 
Q 419.845665 270.6975 419.235665 271.3075 
Q 418.625665 271.915 418.618165 272.9925 
L 417.173165 272.845 
Q 417.320665 271.2275 418.288165 270.38 
Q 419.258165 269.5325 420.893165 269.5325 
Q 422.540665 269.5325 423.500665 270.4475 
Q 424.463165 271.36 424.463165 272.7125 
Q 424.463165 273.4 424.180665 274.065 
Q 423.900665 274.7275 423.248165 275.4625 
Q 422.595665 276.1975 421.080665 277.4775 
Q 419.813165 278.54 419.453165 278.92 
Q 419.095665 279.2975 418.860665 279.68 
L 424.478165 279.68 
z
M 425.986603 278.0325 
L 427.461603 277.9075 
Q 427.626603 278.985 428.224103 279.53 
Q 428.821603 280.0725 429.666603 280.0725 
Q 430.681603 280.0725 431.384103 279.3075 
Q 432.086603 278.54 432.086603 277.275 
Q 432.086603 276.0725 431.411603 275.3775 
Q 430.736603 274.68 429.641603 274.68 
Q 428.961603 274.68 428.414103 274.99 
Q 427.869103 275.2975 427.556603 275.79 
L 426.236603 275.6175 
L 427.344103 269.735 
L 433.041603 269.735 
L 433.041603 271.08 
L 428.469103 271.08 
L 427.854103 274.1575 
Q 428.884103 273.4375 430.016603 273.4375 
Q 431.516603 273.4375 432.546603 274.4775 
Q 433.579103 275.5175 433.579103 277.15 
Q 433.579103 278.705 432.674103 279.8375 
Q 431.571603 281.2275 429.666603 281.2275 
Q 428.104103 281.2275 427.114103 280.3525 
Q 426.126603 279.4775 425.986603 278.0325 
z
"/>
     </g>
    </g>
    <g id="text_7">
     <g id="patch_10">
      <path d="M 247.24625 303.2275 
L 305.29875 303.2275 
L 305.29875 288.2125 
L 247.24625 288.2125 
z
" style="fill: #ffffff"/>
     </g>
     <path d="M 251.39375 299.86 
L 251.39375 289.7575 
L 247.62125 289.7575 
L 247.62125 288.4075 
L 256.69875 288.4075 
L 256.69875 289.7575 
L 252.91125 289.7575 
L 252.91125 299.86 
L 251.39375 299.86 
z
M 257.482187 290.025 
L 257.482187 288.4075 
L 258.889687 288.4075 
L 258.889687 290.025 
L 257.482187 290.025 
z
M 257.482187 299.86 
L 257.482187 291.5625 
L 258.889687 291.5625 
L 258.889687 299.86 
L 257.482187 299.86 
z
M 261.029375 299.86 
L 261.029375 291.5625 
L 262.286875 291.5625 
L 262.286875 292.7275 
Q 262.676875 292.1175 263.324375 291.7475 
Q 263.974375 291.375 264.801875 291.375 
Q 265.724375 291.375 266.314375 291.7575 
Q 266.904375 292.14 267.146875 292.8275 
Q 268.131875 291.375 269.709375 291.375 
Q 270.944375 291.375 271.606875 292.06 
Q 272.271875 292.7425 272.271875 294.165 
L 272.271875 299.86 
L 270.871875 299.86 
L 270.871875 294.6325 
Q 270.871875 293.79 270.734375 293.42 
Q 270.599375 293.0475 270.239375 292.8225 
Q 269.881875 292.595 269.396875 292.595 
Q 268.521875 292.595 267.941875 293.1775 
Q 267.364375 293.7575 267.364375 295.04 
L 267.364375 299.86 
L 265.959375 299.86 
L 265.959375 294.47 
Q 265.959375 293.5325 265.614375 293.065 
Q 265.271875 292.595 264.489375 292.595 
Q 263.896875 292.595 263.391875 292.9075 
Q 262.889375 293.22 262.661875 293.8225 
Q 262.434375 294.4225 262.434375 295.555 
L 262.434375 299.86 
L 261.029375 299.86 
z
M 280.0375 297.1875 
L 281.49 297.3675 
Q 281.1475 298.64 280.2175 299.345 
Q 279.2875 300.0475 277.8425 300.0475 
Q 276.0225 300.0475 274.955 298.9275 
Q 273.8875 297.805 273.8875 295.7825 
Q 273.8875 293.6875 274.965 292.5325 
Q 276.045 291.375 277.7625 291.375 
Q 279.4275 291.375 280.4825 292.5075 
Q 281.5375 293.64 281.5375 295.695 
Q 281.5375 295.82 281.53 296.07 
L 275.3425 296.07 
Q 275.42 297.4375 276.115 298.165 
Q 276.81 298.89 277.85 298.89 
Q 278.6225 298.89 279.17 298.485 
Q 279.7175 298.0775 280.0375 297.1875 
z
M 275.42 294.915 
L 280.0525 294.915 
Q 279.96 293.8675 279.5225 293.345 
Q 278.85 292.5325 277.78 292.5325 
Q 276.81 292.5325 276.15 293.18 
Q 275.49 293.8275 275.42 294.915 
z
M 290.38875 303.2275 
Q 289.22375 301.7575 288.41875 299.79 
Q 287.61625 297.82 287.61625 295.7125 
Q 287.61625 293.8525 288.21625 292.15 
Q 288.91875 290.1725 290.38875 288.2125 
L 291.39625 288.2125 
Q 290.45125 289.8375 290.14625 290.5325 
Q 289.66875 291.61 289.39625 292.7825 
Q 289.06125 294.2425 289.06125 295.72 
Q 289.06125 299.4775 291.39625 303.2275 
L 290.38875 303.2275 
z
M 292.466875 297.3825 
L 293.856875 297.165 
Q 293.974375 298 294.509375 298.445 
Q 295.044375 298.89 296.006875 298.89 
Q 296.974375 298.89 297.441875 298.4975 
Q 297.911875 298.1025 297.911875 297.57 
Q 297.911875 297.095 297.496875 296.82 
Q 297.209375 296.6325 296.059375 296.345 
Q 294.514375 295.9525 293.916875 295.6675 
Q 293.319375 295.3825 293.009375 294.88 
Q 292.701875 294.375 292.701875 293.765 
Q 292.701875 293.2125 292.954375 292.74 
Q 293.209375 292.265 293.646875 291.9525 
Q 293.974375 291.7125 294.539375 291.545 
Q 295.106875 291.375 295.756875 291.375 
Q 296.731875 291.375 297.469375 291.6575 
Q 298.209375 291.9375 298.559375 292.42 
Q 298.911875 292.9 299.044375 293.7025 
L 297.669375 293.89 
Q 297.576875 293.25 297.126875 292.8925 
Q 296.676875 292.5325 295.856875 292.5325 
Q 294.889375 292.5325 294.474375 292.8525 
Q 294.059375 293.1725 294.059375 293.6025 
Q 294.059375 293.875 294.231875 294.095 
Q 294.404375 294.32 294.771875 294.47 
Q 294.981875 294.5475 296.014375 294.8275 
Q 297.506875 295.2275 298.094375 295.4825 
Q 298.684375 295.735 299.019375 296.22 
Q 299.356875 296.7025 299.356875 297.4225 
Q 299.356875 298.125 298.946875 298.7475 
Q 298.536875 299.3675 297.761875 299.7075 
Q 296.989375 300.0475 296.014375 300.0475 
Q 294.396875 300.0475 293.549375 299.375 
Q 292.701875 298.7025 292.466875 297.3825 
z
M 301.951875 303.2275 
L 300.944375 303.2275 
Q 303.279375 299.4775 303.279375 295.72 
Q 303.279375 294.25 302.944375 292.805 
Q 302.676875 291.6325 302.201875 290.555 
Q 301.896875 289.8525 300.944375 288.2125 
L 301.951875 288.2125 
Q 303.419375 290.1725 304.121875 292.15 
Q 304.724375 293.8525 304.724375 295.7125 
Q 304.724375 297.82 303.914375 299.79 
Q 303.106875 301.7575 301.951875 303.2275 
z
" style="stroke: #ffffff; stroke-width: 3"/>
     <path d="M 251.39375 299.86 
L 251.39375 289.7575 
L 247.62125 289.7575 
L 247.62125 288.4075 
L 256.69875 288.4075 
L 256.69875 289.7575 
L 252.91125 289.7575 
L 252.91125 299.86 
L 251.39375 299.86 
z
M 257.482187 290.025 
L 257.482187 288.4075 
L 258.889687 288.4075 
L 258.889687 290.025 
L 257.482187 290.025 
z
M 257.482187 299.86 
L 257.482187 291.5625 
L 258.889687 291.5625 
L 258.889687 299.86 
L 257.482187 299.86 
z
M 261.029375 299.86 
L 261.029375 291.5625 
L 262.286875 291.5625 
L 262.286875 292.7275 
Q 262.676875 292.1175 263.324375 291.7475 
Q 263.974375 291.375 264.801875 291.375 
Q 265.724375 291.375 266.314375 291.7575 
Q 266.904375 292.14 267.146875 292.8275 
Q 268.131875 291.375 269.709375 291.375 
Q 270.944375 291.375 271.606875 292.06 
Q 272.271875 292.7425 272.271875 294.165 
L 272.271875 299.86 
L 270.871875 299.86 
L 270.871875 294.6325 
Q 270.871875 293.79 270.734375 293.42 
Q 270.599375 293.0475 270.239375 292.8225 
Q 269.881875 292.595 269.396875 292.595 
Q 268.521875 292.595 267.941875 293.1775 
Q 267.364375 293.7575 267.364375 295.04 
L 267.364375 299.86 
L 265.959375 299.86 
L 265.959375 294.47 
Q 265.959375 293.5325 265.614375 293.065 
Q 265.271875 292.595 264.489375 292.595 
Q 263.896875 292.595 263.391875 292.9075 
Q 262.889375 293.22 262.661875 293.8225 
Q 262.434375 294.4225 262.434375 295.555 
L 262.434375 299.86 
L 261.029375 299.86 
z
M 280.0375 297.1875 
L 281.49 297.3675 
Q 281.1475 298.64 280.2175 299.345 
Q 279.2875 300.0475 277.8425 300.0475 
Q 276.0225 300.0475 274.955 298.9275 
Q 273.8875 297.805 273.8875 295.7825 
Q 273.8875 293.6875 274.965 292.5325 
Q 276.045 291.375 277.7625 291.375 
Q 279.4275 291.375 280.4825 292.5075 
Q 281.5375 293.64 281.5375 295.695 
Q 281.5375 295.82 281.53 296.07 
L 275.3425 296.07 
Q 275.42 297.4375 276.115 298.165 
Q 276.81 298.89 277.85 298.89 
Q 278.6225 298.89 279.17 298.485 
Q 279.7175 298.0775 280.0375 297.1875 
z
M 275.42 294.915 
L 280.0525 294.915 
Q 279.96 293.8675 279.5225 293.345 
Q 278.85 292.5325 277.78 292.5325 
Q 276.81 292.5325 276.15 293.18 
Q 275.49 293.8275 275.42 294.915 
z
M 290.38875 303.2275 
Q 289.22375 301.7575 288.41875 299.79 
Q 287.61625 297.82 287.61625 295.7125 
Q 287.61625 293.8525 288.21625 292.15 
Q 288.91875 290.1725 290.38875 288.2125 
L 291.39625 288.2125 
Q 290.45125 289.8375 290.14625 290.5325 
Q 289.66875 291.61 289.39625 292.7825 
Q 289.06125 294.2425 289.06125 295.72 
Q 289.06125 299.4775 291.39625 303.2275 
L 290.38875 303.2275 
z
M 292.466875 297.3825 
L 293.856875 297.165 
Q 293.974375 298 294.509375 298.445 
Q 295.044375 298.89 296.006875 298.89 
Q 296.974375 298.89 297.441875 298.4975 
Q 297.911875 298.1025 297.911875 297.57 
Q 297.911875 297.095 297.496875 296.82 
Q 297.209375 296.6325 296.059375 296.345 
Q 294.514375 295.9525 293.916875 295.6675 
Q 293.319375 295.3825 293.009375 294.88 
Q 292.701875 294.375 292.701875 293.765 
Q 292.701875 293.2125 292.954375 292.74 
Q 293.209375 292.265 293.646875 291.9525 
Q 293.974375 291.7125 294.539375 291.545 
Q 295.106875 291.375 295.756875 291.375 
Q 296.731875 291.375 297.469375 291.6575 
Q 298.209375 291.9375 298.559375 292.42 
Q 298.911875 292.9 299.044375 293.7025 
L 297.669375 293.89 
Q 297.576875 293.25 297.126875 292.8925 
Q 296.676875 292.5325 295.856875 292.5325 
Q 294.889375 292.5325 294.474375 292.8525 
Q 294.059375 293.1725 294.059375 293.6025 
Q 294.059375 293.875 294.231875 294.095 
Q 294.404375 294.32 294.771875 294.47 
Q 294.981875 294.5475 296.014375 294.8275 
Q 297.506875 295.2275 298.094375 295.4825 
Q 298.684375 295.735 299.019375 296.22 
Q 299.356875 296.7025 299.356875 297.4225 
Q 299.356875 298.125 298.946875 298.7475 
Q 298.536875 299.3675 297.761875 299.7075 
Q 296.989375 300.0475 296.014375 300.0475 
Q 294.396875 300.0475 293.549375 299.375 
Q 292.701875 298.7025 292.466875 297.3825 
z
M 301.951875 303.2275 
L 300.944375 303.2275 
Q 303.279375 299.4775 303.279375 295.72 
Q 303.279375 294.25 302.944375 292.805 
Q 302.676875 291.6325 302.201875 290.555 
Q 301.896875 289.8525 300.944375 288.2125 
L 301.951875 288.2125 
Q 303.419375 290.1725 304.121875 292.15 
Q 304.724375 293.8525 304.724375 295.7125 
Q 304.724375 297.82 303.914375 299.79 
Q 303.106875 301.7575 301.951875 303.2275 
z
"/>
    </g>
   </g>
   <g id="matplotlib.axis_2">
    <g id="ytick_1">
     <g id="line2d_13">
      <defs>
       <path id="mf1c986f1b3" d="M 0 0 
L 4 0 
" style="stroke: #000000; stroke-width: 1.2"/>
      </defs>
      <g>
       <use xlink:href="#mf1c986f1b3" x="53.0725" y="254.5" style="stroke: #000000; stroke-width: 1.2"/>
      </g>
     </g>
     <g id="line2d_14">
      <defs>
       <path id="mc77e06cf39" d="M 0 0 
L -4 0 
" style="stroke: #000000; stroke-width: 1.2"/>
      </defs>
      <g>
       <use xlink:href="#mc77e06cf39" x="499.4725" y="254.5" style="stroke: #000000; stroke-width: 1.2"/>
      </g>
     </g>
     <g id="text_8">
      <g id="patch_11">
       <path d="M 21.6405 267.59825 
L 52.2645 267.59825 
L 52.2645 244.58175 
L 21.6405 244.58175 
z
" style="fill: #ffffff; stroke: #ffffff; stroke-linejoin: miter"/>
      </g>
      <path d="M 26.4975 254.57875 
Q 26.4975 252.54625 26.915 251.30875 
Q 27.3325 250.06875 28.155 249.39875 
Q 28.98 248.72625 30.23 248.72625 
Q 31.1525 248.72625 31.8475 249.09875 
Q 32.5425 249.46875 32.995 250.16875 
Q 33.45 250.86625 33.7075 251.87125 
Q 33.965 252.87375 33.965 254.57875 
Q 33.965 256.59375 33.55 257.83125 
Q 33.1375 259.06875 32.3125 259.74625 
Q 31.49 260.42125 30.23 260.42125 
Q 28.575 260.42125 27.63 259.23375 
Q 26.4975 257.80375 26.4975 254.57875 
z
M 27.9425 254.57875 
Q 27.9425 257.39875 28.6025 258.33375 
Q 29.2625 259.26625 30.23 259.26625 
Q 31.2 259.26625 31.86 258.32875 
Q 32.52 257.39125 32.52 254.57875 
Q 32.52 251.74875 31.86 250.82125 
Q 31.2 249.89125 30.215 249.89125 
Q 29.2475 249.89125 28.6675 250.71125 
Q 27.9425 251.75625 27.9425 254.57875 
z
M 36.183438 260.22625 
L 36.183438 258.62375 
L 37.785938 258.62375 
L 37.785938 260.22625 
L 36.183438 260.22625 
z
M 39.84125 254.57875 
Q 39.84125 252.54625 40.25875 251.30875 
Q 40.67625 250.06875 41.49875 249.39875 
Q 42.32375 248.72625 43.57375 248.72625 
Q 44.49625 248.72625 45.19125 249.09875 
Q 45.88625 249.46875 46.33875 250.16875 
Q 46.79375 250.86625 47.05125 251.87125 
Q 47.30875 252.87375 47.30875 254.57875 
Q 47.30875 256.59375 46.89375 257.83125 
Q 46.48125 259.06875 45.65625 259.74625 
Q 44.83375 260.42125 43.57375 260.42125 
Q 41.91875 260.42125 40.97375 259.23375 
Q 39.84125 257.80375 39.84125 254.57875 
z
M 41.28625 254.57875 
Q 41.28625 257.39875 41.94625 258.33375 
Q 42.60625 259.26625 43.57375 259.26625 
Q 44.54375 259.26625 45.20375 258.32875 
Q 45.86375 257.39125 45.86375 254.57875 
Q 45.86375 251.74875 45.20375 250.82125 
Q 44.54375 249.89125 43.55875 249.89125 
Q 42.59125 249.89125 42.01125 250.71125 
Q 41.28625 251.75625 41.28625 254.57875 
z
" style="stroke: #ffffff"/>
      <path d="M 26.4975 254.57875 
Q 26.4975 252.54625 26.915 251.30875 
Q 27.3325 250.06875 28.155 249.39875 
Q 28.98 248.72625 30.23 248.72625 
Q 31.1525 248.72625 31.8475 249.09875 
Q 32.5425 249.46875 32.995 250.16875 
Q 33.45 250.86625 33.7075 251.87125 
Q 33.965 252.87375 33.965 254.57875 
Q 33.965 256.59375 33.55 257.83125 
Q 33.1375 259.06875 32.3125 259.74625 
Q 31.49 260.42125 30.23 260.42125 
Q 28.575 260.42125 27.63 259.23375 
Q 26.4975 257.80375 26.4975 254.57875 
z
M 27.9425 254.57875 
Q 27.9425 257.39875 28.6025 258.33375 
Q 29.2625 259.26625 30.23 259.26625 
Q 31.2 259.26625 31.86 258.32875 
Q 32.52 257.39125 32.52 254.57875 
Q 32.52 251.74875 31.86 250.82125 
Q 31.2 249.89125 30.215 249.89125 
Q 29.2475 249.89125 28.6675 250.71125 
Q 27.9425 251.75625 27.9425 254.57875 
z
M 36.183438 260.22625 
L 36.183438 258.62375 
L 37.785938 258.62375 
L 37.785938 260.22625 
L 36.183438 260.22625 
z
M 39.84125 254.57875 
Q 39.84125 252.54625 40.25875 251.30875 
Q 40.67625 250.06875 41.49875 249.39875 
Q 42.32375 248.72625 43.57375 248.72625 
Q 44.49625 248.72625 45.19125 249.09875 
Q 45.88625 249.46875 46.33875 250.16875 
Q 46.79375 250.86625 47.05125 251.87125 
Q 47.30875 252.87375 47.30875 254.57875 
Q 47.30875 256.59375 46.89375 257.83125 
Q 46.48125 259.06875 45.65625 259.74625 
Q 44.83375 260.42125 43.57375 260.42125 
Q 41.91875 260.42125 40.97375 259.23375 
Q 39.84125 257.80375 39.84125 254.57875 
z
M 41.28625 254.57875 
Q 41.28625 257.39875 41.94625 258.33375 
Q 42.60625 259.26625 43.57375 259.26625 
Q 44.54375 259.26625 45.20375 258.32875 
Q 45.86375 257.39125 45.86375 254.57875 
Q 45.86375 251.74875 45.20375 250.82125 
Q 44.54375 249.89125 43.55875 249.89125 
Q 42.59125 249.89125 42.01125 250.71125 
Q 41.28625 251.75625 41.28625 254.57875 
z
"/>
     </g>
    </g>
    <g id="ytick_2">
     <g id="line2d_15">
      <g>
       <use xlink:href="#mf1c986f1b3" x="53.0725" y="214.18" style="stroke: #000000; stroke-width: 1.2"/>
      </g>
     </g>
     <g id="line2d_16">
      <g>
       <use xlink:href="#mc77e06cf39" x="499.4725" y="214.18" style="stroke: #000000; stroke-width: 1.2"/>
      </g>
     </g>
     <g id="text_9">
      <g id="patch_12">
       <path d="M 21.6405 227.27825 
L 52.2645 227.27825 
L 52.2645 204.26175 
L 21.6405 204.26175 
z
" style="fill: #ffffff; stroke: #ffffff; stroke-linejoin: miter"/>
      </g>
      <path d="M 26.4975 214.25875 
Q 26.4975 212.22625 26.915 210.98875 
Q 27.3325 209.74875 28.155 209.07875 
Q 28.98 208.40625 30.23 208.40625 
Q 31.1525 208.40625 31.8475 208.77875 
Q 32.5425 209.14875 32.995 209.84875 
Q 33.45 210.54625 33.7075 211.55125 
Q 33.965 212.55375 33.965 214.25875 
Q 33.965 216.27375 33.55 217.51125 
Q 33.1375 218.74875 32.3125 219.42625 
Q 31.49 220.10125 30.23 220.10125 
Q 28.575 220.10125 27.63 218.91375 
Q 26.4975 217.48375 26.4975 214.25875 
z
M 27.9425 214.25875 
Q 27.9425 217.07875 28.6025 218.01375 
Q 29.2625 218.94625 30.23 218.94625 
Q 31.2 218.94625 31.86 218.00875 
Q 32.52 217.07125 32.52 214.25875 
Q 32.52 211.42875 31.86 210.50125 
Q 31.2 209.57125 30.215 209.57125 
Q 29.2475 209.57125 28.6675 210.39125 
Q 27.9425 211.43625 27.9425 214.25875 
z
M 36.183438 219.90625 
L 36.183438 218.30375 
L 37.785938 218.30375 
L 37.785938 219.90625 
L 36.183438 219.90625 
z
M 47.23125 218.55375 
L 47.23125 219.90625 
L 39.66125 219.90625 
Q 39.64625 219.39875 39.82375 218.92875 
Q 40.11375 218.15625 40.74875 217.40625 
Q 41.38625 216.65625 42.59125 215.67125 
Q 44.45875 214.14125 45.11375 213.24625 
Q 45.77125 212.35125 45.77125 211.55375 
Q 45.77125 210.71875 45.17125 210.14625 
Q 44.57375 209.57125 43.61375 209.57125 
Q 42.59875 209.57125 41.98875 210.18125 
Q 41.37875 210.78875 41.37125 211.86625 
L 39.92625 211.71875 
Q 40.07375 210.10125 41.04125 209.25375 
Q 42.01125 208.40625 43.64625 208.40625 
Q 45.29375 208.40625 46.25375 209.32125 
Q 47.21625 210.23375 47.21625 211.58625 
Q 47.21625 212.27375 46.93375 212.93875 
Q 46.65375 213.60125 46.00125 214.33625 
Q 45.34875 215.07125 43.83375 216.35125 
Q 42.56625 217.41375 42.20625 217.79375 
Q 41.84875 218.17125 41.61375 218.55375 
L 47.23125 218.55375 
z
" style="stroke: #ffffff"/>
      <path d="M 26.4975 214.25875 
Q 26.4975 212.22625 26.915 210.98875 
Q 27.3325 209.74875 28.155 209.07875 
Q 28.98 208.40625 30.23 208.40625 
Q 31.1525 208.40625 31.8475 208.77875 
Q 32.5425 209.14875 32.995 209.84875 
Q 33.45 210.54625 33.7075 211.55125 
Q 33.965 212.55375 33.965 214.25875 
Q 33.965 216.27375 33.55 217.51125 
Q 33.1375 218.74875 32.3125 219.42625 
Q 31.49 220.10125 30.23 220.10125 
Q 28.575 220.10125 27.63 218.91375 
Q 26.4975 217.48375 26.4975 214.25875 
z
M 27.9425 214.25875 
Q 27.9425 217.07875 28.6025 218.01375 
Q 29.2625 218.94625 30.23 218.94625 
Q 31.2 218.94625 31.86 218.00875 
Q 32.52 217.07125 32.52 214.25875 
Q 32.52 211.42875 31.86 210.50125 
Q 31.2 209.57125 30.215 209.57125 
Q 29.2475 209.57125 28.6675 210.39125 
Q 27.9425 211.43625 27.9425 214.25875 
z
M 36.183438 219.90625 
L 36.183438 218.30375 
L 37.785938 218.30375 
L 37.785938 219.90625 
L 36.183438 219.90625 
z
M 47.23125 218.55375 
L 47.23125 219.90625 
L 39.66125 219.90625 
Q 39.64625 219.39875 39.82375 218.92875 
Q 40.11375 218.15625 40.74875 217.40625 
Q 41.38625 216.65625 42.59125 215.67125 
Q 44.45875 214.14125 45.11375 213.24625 
Q 45.77125 212.35125 45.77125 211.55375 
Q 45.77125 210.71875 45.17125 210.14625 
Q 44.57375 209.57125 43.61375 209.57125 
Q 42.59875 209.57125 41.98875 210.18125 
Q 41.37875 210.78875 41.37125 211.86625 
L 39.92625 211.71875 
Q 40.07375 210.10125 41.04125 209.25375 
Q 42.01125 208.40625 43.64625 208.40625 
Q 45.29375 208.40625 46.25375 209.32125 
Q 47.21625 210.23375 47.21625 211.58625 
Q 47.21625 212.27375 46.93375 212.93875 
Q 46.65375 213.60125 46.00125 214.33625 
Q 45.34875 215.07125 43.83375 216.35125 
Q 42.56625 217.41375 42.20625 217.79375 
Q 41.84875 218.17125 41.61375 218.55375 
L 47.23125 218.55375 
z
"/>
     </g>
    </g>
    <g id="ytick_3">
     <g id="line2d_17">
      <g>
       <use xlink:href="#mf1c986f1b3" x="53.0725" y="173.86" style="stroke: #000000; stroke-width: 1.2"/>
      </g>
     </g>
     <g id="line2d_18">
      <g>
       <use xlink:href="#mc77e06cf39" x="499.4725" y="173.86" style="stroke: #000000; stroke-width: 1.2"/>
      </g>
     </g>
     <g id="text_10">
      <g id="patch_13">
       <path d="M 21.6405 186.95825 
L 52.2645 186.95825 
L 52.2645 163.94175 
L 21.6405 163.94175 
z
" style="fill: #ffffff; stroke: #ffffff; stroke-linejoin: miter"/>
      </g>
      <path d="M 26.4975 173.93875 
Q 26.4975 171.90625 26.915 170.66875 
Q 27.3325 169.42875 28.155 168.75875 
Q 28.98 168.08625 30.23 168.08625 
Q 31.1525 168.08625 31.8475 168.45875 
Q 32.5425 168.82875 32.995 169.52875 
Q 33.45 170.22625 33.7075 171.23125 
Q 33.965 172.23375 33.965 173.93875 
Q 33.965 175.95375 33.55 177.19125 
Q 33.1375 178.42875 32.3125 179.10625 
Q 31.49 179.78125 30.23 179.78125 
Q 28.575 179.78125 27.63 178.59375 
Q 26.4975 177.16375 26.4975 173.93875 
z
M 27.9425 173.93875 
Q 27.9425 176.75875 28.6025 177.69375 
Q 29.2625 178.62625 30.23 178.62625 
Q 31.2 178.62625 31.86 177.68875 
Q 32.52 176.75125 32.52 173.93875 
Q 32.52 171.10875 31.86 170.18125 
Q 31.2 169.25125 30.215 169.25125 
Q 29.2475 169.25125 28.6675 170.07125 
Q 27.9425 171.11625 27.9425 173.93875 
z
M 36.183438 179.58625 
L 36.183438 177.98375 
L 37.785938 177.98375 
L 37.785938 179.58625 
L 36.183438 179.58625 
z
M 44.34875 179.58625 
L 44.34875 176.84375 
L 39.37875 176.84375 
L 39.37875 175.55375 
L 44.60625 168.13375 
L 45.75375 168.13375 
L 45.75375 175.55375 
L 47.30125 175.55375 
L 47.30125 176.84375 
L 45.75375 176.84375 
L 45.75375 179.58625 
L 44.34875 179.58625 
z
M 44.34875 175.55375 
L 44.34875 170.39125 
L 40.76125 175.55375 
L 44.34875 175.55375 
z
" style="stroke: #ffffff"/>
      <path d="M 26.4975 173.93875 
Q 26.4975 171.90625 26.915 170.66875 
Q 27.3325 169.42875 28.155 168.75875 
Q 28.98 168.08625 30.23 168.08625 
Q 31.1525 168.08625 31.8475 168.45875 
Q 32.5425 168.82875 32.995 169.52875 
Q 33.45 170.22625 33.7075 171.23125 
Q 33.965 172.23375 33.965 173.93875 
Q 33.965 175.95375 33.55 177.19125 
Q 33.1375 178.42875 32.3125 179.10625 
Q 31.49 179.78125 30.23 179.78125 
Q 28.575 179.78125 27.63 178.59375 
Q 26.4975 177.16375 26.4975 173.93875 
z
M 27.9425 173.93875 
Q 27.9425 176.75875 28.6025 177.69375 
Q 29.2625 178.62625 30.23 178.62625 
Q 31.2 178.62625 31.86 177.68875 
Q 32.52 176.75125 32.52 173.93875 
Q 32.52 171.10875 31.86 170.18125 
Q 31.2 169.25125 30.215 169.25125 
Q 29.2475 169.25125 28.6675 170.07125 
Q 27.9425 171.11625 27.9425 173.93875 
z
M 36.183438 179.58625 
L 36.183438 177.98375 
L 37.785938 177.98375 
L 37.785938 179.58625 
L 36.183438 179.58625 
z
M 44.34875 179.58625 
L 44.34875 176.84375 
L 39.37875 176.84375 
L 39.37875 175.55375 
L 44.60625 168.13375 
L 45.75375 168.13375 
L 45.75375 175.55375 
L 47.30125 175.55375 
L 47.30125 176.84375 
L 45.75375 176.84375 
L 45.75375 179.58625 
L 44.34875 179.58625 
z
M 44.34875 175.55375 
L 44.34875 170.39125 
L 40.76125 175.55375 
L 44.34875 175.55375 
z
"/>
     </g>
    </g>
    <g id="ytick_4">
     <g id="line2d_19">
      <g>
       <use xlink:href="#mf1c986f1b3" x="53.0725" y="133.54" style="stroke: #000000; stroke-width: 1.2"/>
      </g>
     </g>
     <g id="line2d_20">
      <g>
       <use xlink:href="#mc77e06cf39" x="499.4725" y="133.54" style="stroke: #000000; stroke-width: 1.2"/>
      </g>
     </g>
     <g id="text_11">
      <g id="patch_14">
       <path d="M 21.6405 146.63825 
L 52.2645 146.63825 
L 52.2645 123.62175 
L 21.6405 123.62175 
z
" style="fill: #ffffff; stroke: #ffffff; stroke-linejoin: miter"/>
      </g>
      <path d="M 26.4975 133.61875 
Q 26.4975 131.58625 26.915 130.34875 
Q 27.3325 129.10875 28.155 128.43875 
Q 28.98 127.76625 30.23 127.76625 
Q 31.1525 127.76625 31.8475 128.13875 
Q 32.5425 128.50875 32.995 129.20875 
Q 33.45 129.90625 33.7075 130.91125 
Q 33.965 131.91375 33.965 133.61875 
Q 33.965 135.63375 33.55 136.87125 
Q 33.1375 138.10875 32.3125 138.78625 
Q 31.49 139.46125 30.23 139.46125 
Q 28.575 139.46125 27.63 138.27375 
Q 26.4975 136.84375 26.4975 133.61875 
z
M 27.9425 133.61875 
Q 27.9425 136.43875 28.6025 137.37375 
Q 29.2625 138.30625 30.23 138.30625 
Q 31.2 138.30625 31.86 137.36875 
Q 32.52 136.43125 32.52 133.61875 
Q 32.52 130.78875 31.86 129.86125 
Q 31.2 128.93125 30.215 128.93125 
Q 29.2475 128.93125 28.6675 129.75125 
Q 27.9425 130.79625 27.9425 133.61875 
z
M 36.183438 139.26625 
L 36.183438 137.66375 
L 37.785938 137.66375 
L 37.785938 139.26625 
L 36.183438 139.26625 
z
M 47.13625 130.61875 
L 45.73875 130.72625 
Q 45.55125 129.89875 45.20875 129.52375 
Q 44.63625 128.92125 43.80125 128.92125 
Q 43.12875 128.92125 42.62125 129.29625 
Q 41.95875 129.78125 41.57375 130.71125 
Q 41.19125 131.64125 41.17625 133.35875 
Q 41.68375 132.58625 42.41875 132.21125 
Q 43.15375 131.83625 43.95875 131.83625 
Q 45.36375 131.83625 46.35125 132.87125 
Q 47.34125 133.90625 47.34125 135.54625 
Q 47.34125 136.62625 46.87625 137.55125 
Q 46.41125 138.47625 45.59875 138.96875 
Q 44.78625 139.46125 43.75375 139.46125 
Q 41.99625 139.46125 40.88625 138.16875 
Q 39.77875 136.87625 39.77875 133.90625 
Q 39.77875 130.58625 41.00375 129.07875 
Q 42.07375 127.76625 43.88625 127.76625 
Q 45.23875 127.76625 46.10125 128.52375 
Q 46.96625 129.28125 47.13625 130.61875 
z
M 41.39625 135.55625 
Q 41.39625 136.28125 41.70375 136.94625 
Q 42.01125 137.60875 42.56625 137.95875 
Q 43.12125 138.30625 43.73125 138.30625 
Q 44.62125 138.30625 45.26125 137.58875 
Q 45.90375 136.86875 45.90375 135.63375 
Q 45.90375 134.44625 45.26875 133.76375 
Q 44.63625 133.07875 43.67625 133.07875 
Q 42.72375 133.07875 42.05875 133.76375 
Q 41.39625 134.44625 41.39625 135.55625 
z
" style="stroke: #ffffff"/>
      <path d="M 26.4975 133.61875 
Q 26.4975 131.58625 26.915 130.34875 
Q 27.3325 129.10875 28.155 128.43875 
Q 28.98 127.76625 30.23 127.76625 
Q 31.1525 127.76625 31.8475 128.13875 
Q 32.5425 128.50875 32.995 129.20875 
Q 33.45 129.90625 33.7075 130.91125 
Q 33.965 131.91375 33.965 133.61875 
Q 33.965 135.63375 33.55 136.87125 
Q 33.1375 138.10875 32.3125 138.78625 
Q 31.49 139.46125 30.23 139.46125 
Q 28.575 139.46125 27.63 138.27375 
Q 26.4975 136.84375 26.4975 133.61875 
z
M 27.9425 133.61875 
Q 27.9425 136.43875 28.6025 137.37375 
Q 29.2625 138.30625 30.23 138.30625 
Q 31.2 138.30625 31.86 137.36875 
Q 32.52 136.43125 32.52 133.61875 
Q 32.52 130.78875 31.86 129.86125 
Q 31.2 128.93125 30.215 128.93125 
Q 29.2475 128.93125 28.6675 129.75125 
Q 27.9425 130.79625 27.9425 133.61875 
z
M 36.183438 139.26625 
L 36.183438 137.66375 
L 37.785938 137.66375 
L 37.785938 139.26625 
L 36.183438 139.26625 
z
M 47.13625 130.61875 
L 45.73875 130.72625 
Q 45.55125 129.89875 45.20875 129.52375 
Q 44.63625 128.92125 43.80125 128.92125 
Q 43.12875 128.92125 42.62125 129.29625 
Q 41.95875 129.78125 41.57375 130.71125 
Q 41.19125 131.64125 41.17625 133.35875 
Q 41.68375 132.58625 42.41875 132.21125 
Q 43.15375 131.83625 43.95875 131.83625 
Q 45.36375 131.83625 46.35125 132.87125 
Q 47.34125 133.90625 47.34125 135.54625 
Q 47.34125 136.62625 46.87625 137.55125 
Q 46.41125 138.47625 45.59875 138.96875 
Q 44.78625 139.46125 43.75375 139.46125 
Q 41.99625 139.46125 40.88625 138.16875 
Q 39.77875 136.87625 39.77875 133.90625 
Q 39.77875 130.58625 41.00375 129.07875 
Q 42.07375 127.76625 43.88625 127.76625 
Q 45.23875 127.76625 46.10125 128.52375 
Q 46.96625 129.28125 47.13625 130.61875 
z
M 41.39625 135.55625 
Q 41.39625 136.28125 41.70375 136.94625 
Q 42.01125 137.60875 42.56625 137.95875 
Q 43.12125 138.30625 43.73125 138.30625 
Q 44.62125 138.30625 45.26125 137.58875 
Q 45.90375 136.86875 45.90375 135.63375 
Q 45.90375 134.44625 45.26875 133.76375 
Q 44.63625 133.07875 43.67625 133.07875 
Q 42.72375 133.07875 42.05875 133.76375 
Q 41.39625 134.44625 41.39625 135.55625 
z
"/>
     </g>
    </g>
    <g id="ytick_5">
     <g id="line2d_21">
      <g>
       <use xlink:href="#mf1c986f1b3" x="53.0725" y="93.22" style="stroke: #000000; stroke-width: 1.2"/>
      </g>
     </g>
     <g id="line2d_22">
      <g>
       <use xlink:href="#mc77e06cf39" x="499.4725" y="93.22" style="stroke: #000000; stroke-width: 1.2"/>
      </g>
     </g>
     <g id="text_12">
      <g id="patch_15">
       <path d="M 21.6405 106.31825 
L 52.2645 106.31825 
L 52.2645 83.30175 
L 21.6405 83.30175 
z
" style="fill: #ffffff; stroke: #ffffff; stroke-linejoin: miter"/>
      </g>
      <path d="M 26.4975 93.29875 
Q 26.4975 91.26625 26.915 90.02875 
Q 27.3325 88.78875 28.155 88.11875 
Q 28.98 87.44625 30.23 87.44625 
Q 31.1525 87.44625 31.8475 87.81875 
Q 32.5425 88.18875 32.995 88.88875 
Q 33.45 89.58625 33.7075 90.59125 
Q 33.965 91.59375 33.965 93.29875 
Q 33.965 95.31375 33.55 96.55125 
Q 33.1375 97.78875 32.3125 98.46625 
Q 31.49 99.14125 30.23 99.14125 
Q 28.575 99.14125 27.63 97.95375 
Q 26.4975 96.52375 26.4975 93.29875 
z
M 27.9425 93.29875 
Q 27.9425 96.11875 28.6025 97.05375 
Q 29.2625 97.98625 30.23 97.98625 
Q 31.2 97.98625 31.86 97.04875 
Q 32.52 96.11125 32.52 93.29875 
Q 32.52 90.46875 31.86 89.54125 
Q 31.2 88.61125 30.215 88.61125 
Q 29.2475 88.61125 28.6675 89.43125 
Q 27.9425 90.47625 27.9425 93.29875 
z
M 36.183438 98.94625 
L 36.183438 97.34375 
L 37.785938 97.34375 
L 37.785938 98.94625 
L 36.183438 98.94625 
z
M 42.00375 92.73625 
Q 41.12875 92.41375 40.70625 91.82125 
Q 40.28625 91.22625 40.28625 90.39875 
Q 40.28625 89.14875 41.18375 88.29875 
Q 42.08375 87.44625 43.57375 87.44625 
Q 45.07375 87.44625 45.98875 88.31875 
Q 46.90375 89.18875 46.90375 90.43875 
Q 46.90375 91.23625 46.48375 91.82625 
Q 46.06625 92.41375 45.21625 92.73625 
Q 46.27125 93.07875 46.82125 93.84625 
Q 47.37125 94.61125 47.37125 95.67375 
Q 47.37125 97.14125 46.33125 98.14125 
Q 45.29375 99.14125 43.59875 99.14125 
Q 41.90375 99.14125 40.86375 98.13875 
Q 39.82375 97.13375 39.82375 95.63375 
Q 39.82375 94.51625 40.39125 93.76375 
Q 40.95875 93.00875 42.00375 92.73625 
z
M 41.72375 90.35125 
Q 41.72375 91.16375 42.24625 91.68125 
Q 42.77125 92.19625 43.60625 92.19625 
Q 44.41875 92.19625 44.93875 91.68625 
Q 45.45875 91.17375 45.45875 90.43125 
Q 45.45875 89.65625 44.92125 89.12875 
Q 44.38625 88.60125 43.59125 88.60125 
Q 42.78625 88.60125 42.25375 89.11875 
Q 41.72375 89.63375 41.72375 90.35125 
z
M 41.27125 95.64125 
Q 41.27125 96.24375 41.55625 96.80625 
Q 41.84125 97.36875 42.40375 97.67875 
Q 42.96625 97.98625 43.61375 97.98625 
Q 44.62125 97.98625 45.27625 97.33875 
Q 45.93375 96.68875 45.93375 95.68875 
Q 45.93375 94.67375 45.25875 94.00875 
Q 44.58375 93.34375 43.56625 93.34375 
Q 42.57375 93.34375 41.92125 94.00125 
Q 41.27125 94.65625 41.27125 95.64125 
z
" style="stroke: #ffffff"/>
      <path d="M 26.4975 93.29875 
Q 26.4975 91.26625 26.915 90.02875 
Q 27.3325 88.78875 28.155 88.11875 
Q 28.98 87.44625 30.23 87.44625 
Q 31.1525 87.44625 31.8475 87.81875 
Q 32.5425 88.18875 32.995 88.88875 
Q 33.45 89.58625 33.7075 90.59125 
Q 33.965 91.59375 33.965 93.29875 
Q 33.965 95.31375 33.55 96.55125 
Q 33.1375 97.78875 32.3125 98.46625 
Q 31.49 99.14125 30.23 99.14125 
Q 28.575 99.14125 27.63 97.95375 
Q 26.4975 96.52375 26.4975 93.29875 
z
M 27.9425 93.29875 
Q 27.9425 96.11875 28.6025 97.05375 
Q 29.2625 97.98625 30.23 97.98625 
Q 31.2 97.98625 31.86 97.04875 
Q 32.52 96.11125 32.52 93.29875 
Q 32.52 90.46875 31.86 89.54125 
Q 31.2 88.61125 30.215 88.61125 
Q 29.2475 88.61125 28.6675 89.43125 
Q 27.9425 90.47625 27.9425 93.29875 
z
M 36.183438 98.94625 
L 36.183438 97.34375 
L 37.785938 97.34375 
L 37.785938 98.94625 
L 36.183438 98.94625 
z
M 42.00375 92.73625 
Q 41.12875 92.41375 40.70625 91.82125 
Q 40.28625 91.22625 40.28625 90.39875 
Q 40.28625 89.14875 41.18375 88.29875 
Q 42.08375 87.44625 43.57375 87.44625 
Q 45.07375 87.44625 45.98875 88.31875 
Q 46.90375 89.18875 46.90375 90.43875 
Q 46.90375 91.23625 46.48375 91.82625 
Q 46.06625 92.41375 45.21625 92.73625 
Q 46.27125 93.07875 46.82125 93.84625 
Q 47.37125 94.61125 47.37125 95.67375 
Q 47.37125 97.14125 46.33125 98.14125 
Q 45.29375 99.14125 43.59875 99.14125 
Q 41.90375 99.14125 40.86375 98.13875 
Q 39.82375 97.13375 39.82375 95.63375 
Q 39.82375 94.51625 40.39125 93.76375 
Q 40.95875 93.00875 42.00375 92.73625 
z
M 41.72375 90.35125 
Q 41.72375 91.16375 42.24625 91.68125 
Q 42.77125 92.19625 43.60625 92.19625 
Q 44.41875 92.19625 44.93875 91.68625 
Q 45.45875 91.17375 45.45875 90.43125 
Q 45.45875 89.65625 44.92125 89.12875 
Q 44.38625 88.60125 43.59125 88.60125 
Q 42.78625 88.60125 42.25375 89.11875 
Q 41.72375 89.63375 41.72375 90.35125 
z
M 41.27125 95.64125 
Q 41.27125 96.24375 41.55625 96.80625 
Q 41.84125 97.36875 42.40375 97.67875 
Q 42.96625 97.98625 43.61375 97.98625 
Q 44.62125 97.98625 45.27625 97.33875 
Q 45.93375 96.68875 45.93375 95.68875 
Q 45.93375 94.67375 45.25875 94.00875 
Q 44.58375 93.34375 43.56625 93.34375 
Q 42.57375 93.34375 41.92125 94.00125 
Q 41.27125 94.65625 41.27125 95.64125 
z
"/>
     </g>
    </g>
    <g id="ytick_6">
     <g id="line2d_23">
      <g>
       <use xlink:href="#mf1c986f1b3" x="53.0725" y="52.9" style="stroke: #000000; stroke-width: 1.2"/>
      </g>
     </g>
     <g id="line2d_24">
      <g>
       <use xlink:href="#mc77e06cf39" x="499.4725" y="52.9" style="stroke: #000000; stroke-width: 1.2"/>
      </g>
     </g>
     <g id="text_13">
      <g id="patch_16">
       <path d="M 21.6405 65.99825 
L 52.2645 65.99825 
L 52.2645 42.98175 
L 21.6405 42.98175 
z
" style="fill: #ffffff; stroke: #ffffff; stroke-linejoin: miter"/>
      </g>
      <path d="M 31.7925 58.62625 
L 30.3875 58.62625 
L 30.3875 49.66625 
Q 29.88 50.14875 29.055 50.63375 
Q 28.23 51.11875 27.575 51.36125 
L 27.575 50.00125 
Q 28.755 49.44625 29.6375 48.65875 
Q 30.52 47.86875 30.8875 47.12625 
L 31.7925 47.12625 
L 31.7925 58.62625 
z
M 36.183438 58.62625 
L 36.183438 57.02375 
L 37.785938 57.02375 
L 37.785938 58.62625 
L 36.183438 58.62625 
z
M 39.84125 52.97875 
Q 39.84125 50.94625 40.25875 49.70875 
Q 40.67625 48.46875 41.49875 47.79875 
Q 42.32375 47.12625 43.57375 47.12625 
Q 44.49625 47.12625 45.19125 47.49875 
Q 45.88625 47.86875 46.33875 48.56875 
Q 46.79375 49.26625 47.05125 50.27125 
Q 47.30875 51.27375 47.30875 52.97875 
Q 47.30875 54.99375 46.89375 56.23125 
Q 46.48125 57.46875 45.65625 58.14625 
Q 44.83375 58.82125 43.57375 58.82125 
Q 41.91875 58.82125 40.97375 57.63375 
Q 39.84125 56.20375 39.84125 52.97875 
z
M 41.28625 52.97875 
Q 41.28625 55.79875 41.94625 56.73375 
Q 42.60625 57.66625 43.57375 57.66625 
Q 44.54375 57.66625 45.20375 56.72875 
Q 45.86375 55.79125 45.86375 52.97875 
Q 45.86375 50.14875 45.20375 49.22125 
Q 44.54375 48.29125 43.55875 48.29125 
Q 42.59125 48.29125 42.01125 49.11125 
Q 41.28625 50.15625 41.28625 52.97875 
z
" style="stroke: #ffffff"/>
      <path d="M 31.7925 58.62625 
L 30.3875 58.62625 
L 30.3875 49.66625 
Q 29.88 50.14875 29.055 50.63375 
Q 28.23 51.11875 27.575 51.36125 
L 27.575 50.00125 
Q 28.755 49.44625 29.6375 48.65875 
Q 30.52 47.86875 30.8875 47.12625 
L 31.7925 47.12625 
L 31.7925 58.62625 
z
M 36.183438 58.62625 
L 36.183438 57.02375 
L 37.785938 57.02375 
L 37.785938 58.62625 
L 36.183438 58.62625 
z
M 39.84125 52.97875 
Q 39.84125 50.94625 40.25875 49.70875 
Q 40.67625 48.46875 41.49875 47.79875 
Q 42.32375 47.12625 43.57375 47.12625 
Q 44.49625 47.12625 45.19125 47.49875 
Q 45.88625 47.86875 46.33875 48.56875 
Q 46.79375 49.26625 47.05125 50.27125 
Q 47.30875 51.27375 47.30875 52.97875 
Q 47.30875 54.99375 46.89375 56.23125 
Q 46.48125 57.46875 45.65625 58.14625 
Q 44.83375 58.82125 43.57375 58.82125 
Q 41.91875 58.82125 40.97375 57.63375 
Q 39.84125 56.20375 39.84125 52.97875 
z
M 41.28625 52.97875 
Q 41.28625 55.79875 41.94625 56.73375 
Q 42.60625 57.66625 43.57375 57.66625 
Q 44.54375 57.66625 45.20375 56.72875 
Q 45.86375 55.79125 45.86375 52.97875 
Q 45.86375 50.14875 45.20375 49.22125 
Q 44.54375 48.29125 43.55875 48.29125 
Q 42.59125 48.29125 42.01125 49.11125 
Q 41.28625 50.15625 41.28625 52.97875 
z
"/>
     </g>
    </g>
    <g id="text_14">
     <!-- Disp. -->
     <g transform="translate(18.6525 171.92625) rotate(-90) scale(0.16 -0.16)">
      <defs>
       <path id="ArialMT-44" d="M 494 0 
L 494 4581 
L 2072 4581 
Q 2606 4581 2888 4516 
Q 3281 4425 3559 4188 
Q 3922 3881 4101 3404 
Q 4281 2928 4281 2316 
Q 4281 1794 4159 1391 
Q 4038 988 3847 723 
Q 3656 459 3429 307 
Q 3203 156 2883 78 
Q 2563 0 2147 0 
L 494 0 
z
M 1100 541 
L 2078 541 
Q 2531 541 2789 625 
Q 3047 709 3200 863 
Q 3416 1078 3536 1442 
Q 3656 1806 3656 2325 
Q 3656 3044 3420 3430 
Q 3184 3816 2847 3947 
Q 2603 4041 2063 4041 
L 1100 4041 
L 1100 541 
z
" transform="scale(0.015625)"/>
       <path id="ArialMT-69" d="M 425 3934 
L 425 4581 
L 988 4581 
L 988 3934 
L 425 3934 
z
M 425 0 
L 425 3319 
L 988 3319 
L 988 0 
L 425 0 
z
" transform="scale(0.015625)"/>
       <path id="ArialMT-73" d="M 197 991 
L 753 1078 
Q 800 744 1014 566 
Q 1228 388 1613 388 
Q 2000 388 2187 545 
Q 2375 703 2375 916 
Q 2375 1106 2209 1216 
Q 2094 1291 1634 1406 
Q 1016 1563 777 1677 
Q 538 1791 414 1992 
Q 291 2194 291 2438 
Q 291 2659 392 2848 
Q 494 3038 669 3163 
Q 800 3259 1026 3326 
Q 1253 3394 1513 3394 
Q 1903 3394 2198 3281 
Q 2494 3169 2634 2976 
Q 2775 2784 2828 2463 
L 2278 2388 
Q 2241 2644 2061 2787 
Q 1881 2931 1553 2931 
Q 1166 2931 1000 2803 
Q 834 2675 834 2503 
Q 834 2394 903 2306 
Q 972 2216 1119 2156 
Q 1203 2125 1616 2013 
Q 2213 1853 2448 1751 
Q 2684 1650 2818 1456 
Q 2953 1263 2953 975 
Q 2953 694 2789 445 
Q 2625 197 2315 61 
Q 2006 -75 1616 -75 
Q 969 -75 630 194 
Q 291 463 197 991 
z
" transform="scale(0.015625)"/>
       <path id="ArialMT-70" d="M 422 -1272 
L 422 3319 
L 934 3319 
L 934 2888 
Q 1116 3141 1344 3267 
Q 1572 3394 1897 3394 
Q 2322 3394 2647 3175 
Q 2972 2956 3137 2557 
Q 3303 2159 3303 1684 
Q 3303 1175 3120 767 
Q 2938 359 2589 142 
Q 2241 -75 1856 -75 
Q 1575 -75 1351 44 
Q 1128 163 984 344 
L 984 -1272 
L 422 -1272 
z
M 931 1641 
Q 931 1000 1190 694 
Q 1450 388 1819 388 
Q 2194 388 2461 705 
Q 2728 1022 2728 1688 
Q 2728 2322 2467 2637 
Q 2206 2953 1844 2953 
Q 1484 2953 1207 2617 
Q 931 2281 931 1641 
z
" transform="scale(0.015625)"/>
       <path id="ArialMT-2e" d="M 581 0 
L 581 641 
L 1222 641 
L 1222 0 
L 581 0 
z
" transform="scale(0.015625)"/>
      </defs>
      <use xlink:href="#ArialMT-44"/>
      <use xlink:href="#ArialMT-69" x="72.216797"/>
      <use xlink:href="#ArialMT-73" x="94.433594"/>
      <use xlink:href="#ArialMT-70" x="144.433594"/>
      <use xlink:href="#ArialMT-2e" x="200.048828"/>
     </g>
    </g>
   </g>
   <g id="line2d_25">
    <path d="M 53.0725 147.887149 
L 53.370299 146.351087 
L 53.668097 143.944902 
L 54.561493 126.61369 
L 55.752687 101.278055 
L 57.241679 73.135793 
L 57.539478 67.490847 
L 57.837277 65.775756 
L 58.135075 62.451471 
L 59.028471 57.151414 
L 59.326269 55.896783 
L 59.624068 56.784701 
L 59.921866 55.695401 
L 60.517463 57.787309 
L 60.815262 57.907558 
L 61.11306 60.891524 
L 63.793247 114.887574 
L 64.091046 123.700131 
L 66.473434 162.390169 
L 67.069031 164.662876 
L 67.36683 165.200409 
L 67.962427 169.683178 
L 68.260225 168.88634 
L 69.153621 176.826445 
L 69.451419 179.012005 
L 69.749218 183.034911 
L 70.047016 182.33004 
L 70.940412 192.580484 
L 71.23821 198.571665 
L 71.833808 206.255237 
L 72.131606 213.410659 
L 72.429405 216.333186 
L 72.727203 214.929137 
L 73.3228 220.890319 
L 73.620599 221.910047 
L 73.918397 223.434685 
L 74.216196 223.304366 
L 74.811793 227.72137 
L 75.109591 226.787207 
L 75.40739 224.745276 
L 75.705188 225.116025 
L 76.002987 226.463815 
L 76.300786 227.21025 
L 76.896383 230.486356 
L 77.194181 231.591141 
L 77.49198 231.620291 
L 77.789778 232.235367 
L 78.087577 231.617847 
L 78.385375 232.657549 
L 78.683174 231.825028 
L 78.980972 231.709928 
L 79.576569 234.217483 
L 79.874368 235.948311 
L 80.172166 236.765982 
L 81.065562 242.462652 
L 81.363361 242.47608 
L 81.661159 243.285104 
L 81.958958 243.255334 
L 82.256756 242.607755 
L 82.554555 245.141313 
L 82.852353 243.728053 
L 83.150152 243.640603 
L 83.44795 245.3987 
L 83.745749 248.270643 
L 84.043547 249.704506 
L 84.341346 249.441176 
L 84.639144 247.877965 
L 84.936943 248.349806 
L 85.234741 249.210071 
L 85.53254 248.775425 
L 85.830339 249.744448 
L 86.425936 254.5 
L 86.723734 254.111045 
L 87.021533 254.055388 
L 87.319331 249.093532 
L 87.61713 246.580291 
L 88.212727 235.059367 
L 88.510525 233.993214 
L 88.808324 232.191929 
L 89.106122 233.76292 
L 89.403921 235.981402 
L 89.701719 239.437912 
L 89.999518 238.276885 
L 90.297317 240.806567 
L 90.892914 235.426426 
L 91.190712 236.339709 
L 91.488511 233.261619 
L 91.786309 232.244872 
L 92.679705 222.810702 
L 92.977503 220.605979 
L 93.275302 217.215446 
L 93.5731 212.136893 
L 93.870899 210.472096 
L 95.062093 197.511875 
L 95.359892 196.229227 
L 95.955489 189.79424 
L 96.253287 183.66929 
L 96.551086 181.743447 
L 97.146683 174.831574 
L 97.74228 170.079253 
L 98.337877 166.053496 
L 98.635675 160.94179 
L 98.933474 157.973274 
L 99.231273 156.803622 
L 100.124668 140.461149 
L 101.315862 118.488364 
L 101.911459 114.704429 
L 102.507056 103.531789 
L 103.698251 90.321117 
L 103.996049 85.985053 
L 104.293848 85.650799 
L 104.591646 86.381293 
L 104.889445 85.184833 
L 105.187243 85.232677 
L 105.485042 83.541794 
L 105.78284 86.519084 
L 106.676236 89.040456 
L 106.974034 89.714977 
L 107.569631 94.145982 
L 107.86743 96.403894 
L 108.165228 97.376592 
L 108.760826 106.104894 
L 109.356423 117.880341 
M 109.95202 127.191344 
L 110.845415 141.460793 
L 111.738811 160.640764 
L 112.036609 162.702616 
L 112.334408 163.383794 
L 112.632206 166.0932 
L 112.930005 166.307873 
L 113.227804 167.837049 
L 114.121199 178.84638 
L 114.418998 184.457117 
L 114.716796 183.317723 
L 115.014595 185.358266 
L 115.312393 185.963354 
L 115.610192 188.100669 
L 115.90799 191.151181 
L 116.801386 196.015766 
L 117.099184 200.35687 
L 117.396983 202.32792 
L 117.694782 206.784671 
L 117.99258 208.270409 
L 118.588177 212.748492 
L 118.885976 212.679566 
L 119.183774 212.949803 
L 119.481573 212.41046 
L 119.779371 215.617353 
L 120.07717 216.461246 
L 120.672767 220.460735 
L 120.970565 220.984699 
L 121.268364 222.700618 
L 121.566162 225.621126 
L 121.863961 224.27453 
L 122.16176 224.236655 
L 122.459558 226.54193 
L 122.757357 225.606303 
L 123.055155 227.954855 
L 123.352954 231.34122 
L 123.650752 233.182032 
L 123.948551 237.18152 
L 124.246349 237.265981 
L 124.544148 235.942712 
L 124.841946 235.521401 
L 125.139745 236.969934 
L 125.437543 234.607915 
L 125.735342 235.472649 
L 126.03314 237.217829 
L 126.628737 244.11287 
L 126.926536 244.771312 
L 127.522133 248.490752 
L 127.819932 248.99798 
L 128.11773 250.133946 
L 128.415529 250.008445 
L 128.713327 250.940368 
L 129.011126 252.603501 
L 129.308924 253.331786 
L 129.606723 253.053918 
L 129.904521 252.55563 
L 130.20232 250.715661 
L 130.500118 249.764521 
L 130.797917 251.386177 
L 131.095715 247.525933 
L 131.393514 246.737723 
L 131.691313 245.5799 
L 131.989111 245.841041 
L 132.28691 247.073563 
L 132.584708 247.699108 
L 132.882507 246.816749 
L 133.180305 247.262324 
L 133.478104 248.16288 
L 133.775902 244.628754 
L 134.073701 243.590619 
L 134.371499 241.965423 
L 134.967096 243.049561 
L 135.562693 244.387155 
L 136.158291 240.440246 
L 137.349485 225.988402 
L 137.945082 217.579834 
L 138.24288 215.781855 
L 139.136276 206.697172 
L 139.434074 201.981639 
L 139.731873 200.056496 
L 140.32747 189.765911 
L 140.625269 188.127286 
L 141.220866 190.179782 
L 141.518664 189.095614 
L 141.816463 186.152429 
L 142.114261 181.41914 
L 142.41206 180.735445 
L 142.709858 174.68043 
L 143.305455 171.244313 
M 143.901052 167.818768 
L 144.794448 150.415447 
L 145.092246 148.719207 
L 145.687844 142.465779 
L 145.985642 137.989472 
L 146.283441 136.623618 
L 147.176836 126.761932 
L 147.474635 124.922535 
L 147.772433 126.833502 
L 148.070232 127.155359 
L 148.36803 126.117549 
L 148.665829 125.528846 
L 148.963627 125.830728 
L 149.261426 123.354454 
L 149.857023 110.192405 
L 150.750419 91.304079 
L 151.346016 83.886822 
L 151.643814 81.46245 
L 152.53721 68.334897 
L 152.835008 65.223853 
L 153.430605 69.226676 
L 153.728404 73.50346 
L 154.324001 83.76732 
L 154.919598 93.705525 
L 155.217397 95.076591 
L 155.812994 107.734536 
L 156.706389 122.519609 
L 157.301986 127.083583 
L 158.49318 145.295293 
L 159.386576 162.630874 
L 160.279972 172.807976 
L 160.57777 174.535427 
L 160.875569 178.948381 
L 161.768964 185.540609 
L 162.66236 199.552945 
L 163.555756 212.999885 
L 163.853554 213.420162 
L 164.151353 212.967115 
L 164.449151 211.303372 
L 164.74695 210.320559 
L 165.044748 207.991617 
L 165.342547 207.365502 
L 165.640345 207.824096 
L 165.938144 212.302287 
L 166.533741 215.067513 
L 166.831539 218.787188 
L 167.129338 219.489154 
L 167.427136 221.358903 
L 167.724935 222.149388 
L 168.320532 226.902424 
L 168.618331 228.873012 
L 168.916129 229.343963 
L 169.213928 229.097248 
L 169.511726 229.099379 
L 169.809525 227.641759 
L 170.70292 233.026305 
L 171.000719 233.176602 
L 171.298517 234.265807 
L 171.894114 230.901946 
L 172.191913 230.282383 
L 172.489711 232.938352 
L 172.78751 237.499643 
L 173.383107 240.380781 
L 173.680906 240.690141 
L 173.978704 243.197403 
L 174.276503 242.60885 
L 174.574301 242.339205 
L 174.8721 243.880382 
L 175.467697 250.087361 
L 175.765495 249.225742 
L 176.063294 250.66799 
L 176.361092 251.395279 
L 176.658891 248.520719 
L 176.956689 247.636814 
L 177.254488 243.763205 
L 177.552287 244.577261 
L 177.850085 243.749468 
L 178.147884 245.888467 
L 178.445682 246.111841 
L 178.743481 248.850687 
L 179.041279 247.491057 
L 179.636876 241.245007 
M 180.530272 233.146562 
L 180.82807 233.895497 
L 181.125869 232.77283 
L 181.423667 235.227682 
L 181.721466 235.196924 
L 182.317063 230.703098 
L 182.614862 229.833965 
L 182.91266 227.580967 
M 183.508257 225.317682 
L 183.806056 223.59282 
L 184.103854 223.191955 
L 184.401653 218.593236 
L 184.699451 211.614165 
L 184.99725 210.864189 
L 185.592847 203.779576 
L 185.890645 203.33736 
L 186.486242 204.153955 
L 186.784041 204.953437 
L 187.08184 204.726005 
L 187.379638 203.514456 
L 187.677437 203.12541 
L 188.570832 190.202216 
L 189.762026 166.781938 
L 190.357623 159.89355 
L 190.655422 158.800597 
L 191.548818 146.945875 
L 192.144415 137.132356 
L 192.442213 132.874577 
L 193.335609 124.940903 
L 194.229004 114.483793 
L 194.526803 112.498857 
L 194.824601 107.270096 
L 195.1224 104.115044 
L 195.717997 93.922467 
L 196.015796 89.874278 
L 196.313594 87.713833 
L 196.611393 81.986117 
L 197.504788 74.20566 
L 197.802587 76.009686 
L 198.100385 76.057761 
M 198.695982 83.157366 
L 198.993781 88.205037 
L 199.291579 90.438432 
L 199.589378 94.374797 
L 199.887176 96.55215 
L 200.482774 104.309422 
M 201.078371 109.369395 
L 201.376169 109.930439 
L 202.269565 123.190689 
L 202.865162 129.319601 
L 203.460759 141.390907 
L 203.758557 144.511708 
L 204.354154 158.451938 
L 204.651953 161.506108 
L 204.949752 165.939045 
L 205.545349 169.157363 
L 205.843147 172.981414 
L 207.034341 181.189115 
L 207.33214 181.471043 
L 208.225535 189.682898 
L 208.523334 191.855066 
L 208.821132 192.945942 
L 209.118931 196.474015 
L 209.416729 197.527424 
L 209.714528 199.042904 
L 210.310125 207.219101 
L 210.905722 218.120774 
L 211.501319 226.128286 
L 211.799118 229.035689 
L 212.096916 228.819702 
L 212.394715 228.863819 
L 212.692513 227.912143 
L 212.990312 226.018422 
L 213.28811 225.683682 
L 213.585909 223.850622 
L 213.883707 223.171692 
L 214.181506 224.214552 
L 214.777103 221.684524 
L 215.074902 222.80772 
L 215.3727 222.420261 
L 215.670499 224.367953 
L 215.968297 227.839862 
L 216.266096 229.759788 
L 216.563894 232.836707 
L 216.861693 238.280001 
L 217.755088 241.590011 
L 218.052887 241.685309 
L 218.648484 239.695065 
L 218.946283 237.434332 
L 219.244081 236.111092 
L 219.54188 236.275826 
L 219.839678 235.056811 
L 220.435275 236.150877 
L 220.733074 237.562537 
L 221.030872 238.424787 
L 222.222066 245.153329 
L 222.817663 248.468921 
L 223.115462 248.510525 
L 223.413261 247.672677 
L 224.008858 243.513953 
L 224.604455 244.639088 
L 224.902253 244.75544 
L 225.200052 245.720464 
L 225.49785 244.223149 
L 225.795649 243.741318 
L 226.093447 242.775287 
M 226.689044 234.128122 
L 226.986843 233.507528 
L 227.284641 233.654918 
L 227.58244 232.581193 
L 228.178037 226.820914 
L 228.475836 228.093626 
L 228.773634 228.129898 
L 229.071433 226.194072 
L 229.369231 226.736092 
L 229.66703 226.344956 
L 229.964828 225.209033 
L 231.453821 207.311205 
M 232.049418 197.477452 
L 232.347216 192.474672 
L 232.645015 190.622379 
L 232.942814 190.253366 
L 233.240612 187.620307 
L 233.836209 181.15733 
L 234.729605 170.251754 
L 235.027403 170.632008 
L 235.623 177.16393 
L 236.516396 168.152255 
L 238.005389 150.485728 
L 238.303187 144.49868 
M 283.270766 146.196774 
L 283.568564 144.85807 
L 284.164161 138.793307 
L 285.950952 119.698613 
L 286.248751 121.042778 
L 286.546549 117.773429 
L 286.844348 116.109178 
L 287.439945 110.362077 
L 289.822333 74.385 
L 290.120132 73.009114 
L 291.013527 67.092595 
L 291.311326 66.509209 
L 291.609124 66.718456 
L 292.204721 70.665097 
L 292.50252 75.380751 
L 292.800319 83.658194 
L 293.098117 87.085134 
L 293.395916 92.756426 
M 293.991513 104.986056 
L 295.182707 131.507515 
L 295.480505 137.501427 
L 296.076102 142.082 
L 296.373901 142.049066 
L 296.671699 143.65549 
M 297.267297 148.809374 
L 297.862894 155.107641 
L 298.458491 166.9591 
L 299.351886 184.322737 
L 299.947483 196.473025 
L 300.245282 200.302519 
L 300.54308 200.763835 
L 300.840879 202.061599 
M 301.436476 197.305214 
L 301.734275 195.884962 
L 302.032073 197.004278 
L 302.925469 204.486559 
L 304.414461 211.326191 
L 305.605655 219.984969 
L 305.903454 221.247052 
L 306.201253 221.52842 
L 306.499051 222.017797 
L 306.79685 221.840603 
L 307.094648 221.013483 
L 307.690245 216.759061 
L 307.988044 217.085247 
L 309.179238 227.098919 
L 309.774835 229.103734 
L 310.370432 227.140205 
L 310.66823 227.702204 
L 311.263828 231.716984 
M 311.859425 237.774908 
L 312.157223 240.737827 
L 312.75282 248.297785 
L 313.050619 251.339787 
L 313.348417 252.796353 
L 313.646216 253.113155 
L 313.944014 252.531654 
M 314.539611 249.198741 
L 314.83741 247.552628 
L 315.135208 246.79841 
L 316.326403 237.932992 
L 317.219798 232.408089 
M 317.815395 229.049179 
L 318.113194 226.803995 
L 318.410992 226.176772 
L 319.006589 220.270673 
L 319.602186 213.313894 
L 320.197784 207.825529 
L 320.495582 208.002084 
L 321.091179 210.282781 
L 321.984575 200.780788 
L 322.282373 198.885699 
L 322.87797 192.240471 
L 323.175769 190.961396 
L 323.771366 185.673666 
M 324.366963 182.204368 
L 324.96256 181.481887 
L 325.260359 181.621176 
L 325.558157 180.760624 
L 325.855956 179.128218 
L 326.451553 173.167442 
L 327.642747 147.8394 
L 327.940545 145.604512 
L 328.833941 132.803419 
L 330.025135 113.899724 
L 330.322934 111.892916 
L 330.620732 110.941697 
L 331.216329 102.635763 
L 331.811926 91.134675 
L 332.109725 87.60055 
L 332.407523 82.055295 
L 332.705322 80.499967 
L 333.300919 73.859034 
L 333.598717 70.181367 
L 333.896516 69.389019 
L 334.194315 65.000362 
L 334.492113 62.825166 
L 334.789912 63.613364 
L 335.08771 66.238787 
L 335.683307 78.303976 
M 336.278904 94.75735 
L 336.874501 110.38547 
L 337.767897 133.943577 
L 338.363494 143.230615 
L 338.661293 145.229416 
L 338.959091 145.198516 
L 339.25689 147.25943 
L 339.554688 147.564546 
L 339.852487 150.827707 
L 340.448084 159.776857 
L 340.745882 160.117756 
L 341.341479 163.338823 
L 341.639278 166.055131 
L 341.937076 169.798066 
M 342.532673 177.793437 
L 342.830472 182.804147 
L 343.128271 185.247678 
L 343.426069 184.987507 
L 343.723868 185.028422 
M 344.319465 187.917724 
L 344.617263 188.838273 
L 344.915062 190.223526 
L 345.21286 193.735374 
L 345.510659 193.435619 
L 347.29745 206.787757 
L 347.595248 206.868999 
L 347.893047 208.769593 
L 348.190846 207.367198 
L 348.488644 207.675949 
L 348.786443 211.199202 
L 349.38204 220.321128 
L 349.977637 227.255256 
L 350.275435 227.919758 
L 350.573234 229.794659 
L 350.871032 227.768769 
L 351.466629 228.939153 
L 351.764428 228.779238 
L 352.062226 229.114486 
L 352.360025 230.716087 
L 352.657824 231.290441 
L 352.955622 231.159866 
L 353.253421 232.078428 
M 353.849018 236.40816 
L 354.146816 235.601873 
L 354.444615 236.02713 
L 354.742413 237.216069 
L 355.040212 239.472966 
L 355.635809 242.448747 
L 355.933607 245.329669 
L 356.231406 244.742051 
L 356.529204 245.515251 
L 356.827003 246.910563 
L 357.124802 247.221706 
L 357.4226 245.58771 
L 358.018197 244.924148 
L 358.315996 244.3869 
L 358.911593 239.424819 
L 359.209391 236.694336 
L 359.50719 237.361462 
L 359.804988 234.292165 
L 360.102787 233.512034 
L 360.400585 231.333165 
L 360.996182 226.063285 
L 361.293981 223.803113 
L 361.59178 225.597229 
L 361.889578 225.007227 
L 362.187377 227.677312 
M 362.782974 232.543141 
L 363.974168 218.77973 
L 364.271966 217.206873 
L 364.569765 213.315817 
L 365.165362 212.256234 
L 367.249952 186.162315 
M 367.845549 178.191156 
L 368.143347 173.473116 
M 368.738944 172.001059 
L 369.036743 171.292942 
L 369.63234 168.180255 
L 369.930138 165.232566 
L 370.227937 161.099844 
L 370.823534 148.016048 
L 371.71693 134.354507 
L 372.014728 131.659188 
M 372.610325 127.749976 
L 373.205922 124.28783 
L 373.801519 117.653437 
L 374.099318 116.841291 
L 374.397116 113.146929 
M 374.992713 104.834708 
L 375.588311 91.726014 
L 376.183908 83.990476 
L 376.481706 82.505806 
L 376.779505 82.063189 
M 377.375102 79.681751 
L 377.6729 77.397974 
L 377.970699 73.057433 
M 378.566296 66.038293 
L 378.864094 64.277836 
L 379.161893 66.662302 
L 379.459691 67.013717 
L 379.75749 68.679997 
L 380.055289 68.398454 
L 380.948684 73.244816 
L 381.544281 81.616818 
L 382.437677 99.6621 
L 383.628871 120.237387 
M 384.820065 135.112969 
L 385.117864 138.898673 
L 385.415662 140.954977 
L 385.713461 141.357273 
L 386.011259 142.481727 
L 386.309058 144.403958 
L 386.606856 147.804843 
L 387.202453 160.934739 
L 387.79805 178.945136 
L 388.691446 188.204571 
L 388.989244 189.649072 
L 389.287043 190.238551 
L 389.584842 191.198428 
L 389.88264 192.882064 
L 390.478237 200.323571 
L 390.776036 201.077644 
L 391.371633 206.97748 
L 391.669431 207.17517 
L 391.96723 206.764216 
L 392.265028 206.959407 
M 392.860625 209.191732 
L 393.158424 209.771259 
L 393.456222 214.176084 
L 393.754021 215.922773 
L 394.05182 218.512111 
L 394.647417 218.457972 
L 395.243014 221.350188 
L 395.540812 222.380031 
L 395.838611 224.668419 
L 396.136409 230.129499 
L 396.434208 229.528385 
L 396.732006 231.108818 
L 397.327603 228.355147 
L 397.625402 227.824884 
L 397.9232 226.587663 
L 398.220999 226.567324 
L 398.816596 227.895187 
L 399.114395 228.032482 
L 400.305589 240.393382 
L 400.603387 240.707293 
L 400.901186 243.937479 
L 401.198984 244.574221 
L 401.496783 244.446003 
L 401.794581 242.819715 
L 402.09238 243.12554 
L 402.687977 243.281575 
L 402.985776 243.605011 
L 403.283574 243.613201 
L 403.581373 246.711764 
L 403.879171 245.620128 
M 404.474768 242.227369 
L 404.772567 241.776766 
L 405.070365 240.197117 
L 405.368164 239.531474 
L 405.665962 240.145953 
L 405.963761 241.211114 
M 406.559358 242.127913 
L 406.857156 240.465835 
L 407.154955 240.22519 
L 407.452754 240.282163 
L 408.048351 234.878114 
L 408.346149 234.340844 
L 408.643948 233.232349 
L 408.941746 230.773781 
L 409.239545 230.640272 
L 409.835142 225.616862 
L 410.13294 224.501719 
L 411.026336 214.623108 
L 411.621933 206.652332 
L 411.919731 205.241863 
L 412.813127 199.104333 
L 413.408724 193.731445 
L 413.706523 190.970912 
L 414.004321 191.422086 
L 414.30212 192.077487 
L 414.599918 192.085619 
L 414.897717 190.762835 
L 415.195515 188.084746 
L 415.493314 187.111858 
L 416.088911 178.89825 
L 416.684508 172.365422 
L 418.471299 138.223237 
L 418.769098 134.818521 
L 419.662493 130.246602 
L 420.25809 126.180253 
L 421.449285 103.757192 
L 422.044882 96.251329 
L 422.640479 89.457793 
L 423.236076 79.844414 
L 423.533874 78.135157 
L 425.022867 56.514202 
L 425.618464 52.9 
L 426.214061 58.962132 
L 426.51186 59.922491 
L 426.809658 61.406284 
L 428.000852 80.504437 
L 428.596449 92.461555 
L 428.894248 95.362401 
L 429.192046 97.17227 
L 429.489845 97.982349 
L 430.085442 104.936195 
L 430.38324 109.661319 
L 430.978838 121.639515 
L 431.872233 133.766431 
L 432.46783 138.399428 
L 433.956823 157.203369 
L 434.55242 169.434345 
L 434.850218 175.046157 
L 435.148017 176.163526 
L 435.445816 178.55248 
L 435.743614 177.731525 
L 436.041413 178.09823 
L 436.339211 179.220186 
L 436.63701 181.804347 
L 437.530405 192.903449 
L 437.828204 195.160153 
L 438.126002 199.853454 
L 438.423801 201.127226 
L 438.721599 203.389432 
L 439.317196 212.447031 
L 439.912794 216.088721 
M 440.508391 217.727777 
L 440.806189 219.761563 
L 441.103988 218.728782 
L 441.401786 219.618537 
L 441.699585 219.527267 
L 441.997383 220.001542 
L 442.59298 216.127852 
L 442.890779 217.039726 
L 443.486376 220.915377 
M 444.081973 222.412685 
L 444.67757 226.121074 
L 444.975369 228.07491 
L 445.273167 228.849923 
L 445.570966 232.191506 
L 445.868764 233.818638 
L 446.166563 234.485891 
L 446.464361 233.697911 
L 446.76216 234.45817 
L 447.357757 236.660094 
L 447.655555 239.331437 
L 447.953354 236.564432 
L 448.251152 236.229938 
L 448.548951 236.919742 
L 449.144548 240.577985 
L 449.442347 242.447051 
L 449.740145 242.80235 
L 450.037944 243.831027 
L 450.335742 242.736025 
L 450.931339 235.815797 
L 451.229138 235.984078 
L 451.526936 235.971643 
L 451.824735 234.240627 
L 452.122533 235.405366 
M 452.71813 238.019619 
L 453.015929 237.994746 
L 453.313727 238.904495 
L 453.611526 236.050169 
L 453.909325 236.914051 
L 454.504922 229.209724 
L 455.398317 223.396949 
L 455.993914 218.30792 
L 456.291713 213.376658 
L 456.589511 210.839524 
L 456.88731 206.63258 
M 457.482907 202.934842 
L 457.780705 201.802387 
L 458.376303 197.33193 
L 458.9719 190.701386 
M 459.567497 182.848825 
L 460.163094 179.894787 
L 460.758691 171.59367 
L 461.949885 152.300775 
L 462.247683 149.576912 
L 462.545482 147.979921 
L 463.438878 138.850466 
L 463.736676 133.244597 
L 464.332273 128.072908 
L 464.630072 127.157706 
L 464.92787 126.851524 
L 465.523467 123.309416 
L 465.821266 120.68306 
L 466.416863 112.334882 
L 467.608057 94.000639 
L 468.501453 78.376541 
L 468.799251 74.823763 
M 469.394848 67.55959 
L 469.692647 62.36224 
L 469.990445 59.138104 
L 470.288244 57.239536 
L 470.586042 58.920997 
L 471.181639 70.031416 
L 471.777236 82.384314 
L 472.968431 100.175804 
L 473.564028 114.440901 
L 474.159625 121.507919 
L 475.05302 132.869766 
L 475.648617 135.561179 
L 475.946416 140.586243 
L 476.542013 145.922399 
L 477.13761 157.247444 
L 477.435409 165.223592 
L 478.031006 173.778861 
L 478.626603 182.679914 
L 479.817797 191.615464 
L 480.115595 192.380432 
L 480.413394 191.596277 
L 481.008991 194.540602 
M 481.604588 195.285883 
L 481.902387 197.275833 
L 482.497984 204.722573 
L 482.795782 204.964099 
L 483.093581 207.029642 
L 483.391379 207.749212 
L 483.689178 207.174054 
L 483.986976 208.707744 
L 484.284775 208.361424 
L 484.880372 217.904545 
L 485.17817 222.050524 
L 485.475969 223.018389 
L 485.773768 225.608682 
L 486.071566 224.304205 
L 486.369365 222.028406 
L 486.667163 221.656235 
L 486.964962 218.673079 
L 487.26276 221.288971 
L 487.560559 221.839158 
M 488.156156 226.282616 
L 488.751753 229.677374 
L 489.34735 234.145146 
M 489.942947 238.893445 
L 490.240745 240.78254 
L 490.836343 246.123788 
L 491.134141 244.216821 
L 491.43194 246.293045 
L 491.729738 245.425131 
L 492.027537 243.875763 
L 492.325335 243.496305 
L 492.623134 241.046971 
L 492.920932 240.372881 
L 493.218731 240.741275 
L 493.516529 240.563906 
L 493.814328 238.906984 
L 494.112126 238.517819 
L 495.303321 228.398418 
M 495.898918 223.8909 
L 496.196716 221.492093 
L 496.494515 220.479474 
L 496.792313 218.272722 
L 497.090112 216.986054 
M 497.685709 209.061734 
L 497.983507 206.814002 
L 498.579104 200.681652 
L 498.876903 199.077691 
L 499.174701 198.27496 
L 499.4725 198.153869 
L 499.4725 198.153869 
" clip-path="url(#p95d1ccc5c8)" style="fill: none; stroke: #18212b; stroke-opacity: 0.75; stroke-width: 1.2; stroke-linecap: square"/>
   </g>
   <g id="LineCollection_1">
    <path d="M 109.654221 254.5 
L 109.654221 52.9 
" clip-path="url(#p95d1ccc5c8)" style="fill: none; stroke: #3498db; stroke-opacity: 0.45; stroke-width: 1.2"/>
    <path d="M 143.603254 254.5 
L 143.603254 52.9 
" clip-path="url(#p95d1ccc5c8)" style="fill: none; stroke: #3498db; stroke-opacity: 0.45; stroke-width: 1.2"/>
    <path d="M 179.934675 254.5 
L 179.934675 52.9 
" clip-path="url(#p95d1ccc5c8)" style="fill: none; stroke: #3498db; stroke-opacity: 0.45; stroke-width: 1.2"/>
    <path d="M 180.232473 254.5 
L 180.232473 52.9 
" clip-path="url(#p95d1ccc5c8)" style="fill: none; stroke: #3498db; stroke-opacity: 0.45; stroke-width: 1.2"/>
    <path d="M 183.210459 254.5 
L 183.210459 52.9 
" clip-path="url(#p95d1ccc5c8)" style="fill: none; stroke: #3498db; stroke-opacity: 0.45; stroke-width: 1.2"/>
    <path d="M 198.398184 254.5 
L 198.398184 52.9 
" clip-path="url(#p95d1ccc5c8)" style="fill: none; stroke: #3498db; stroke-opacity: 0.45; stroke-width: 1.2"/>
    <path d="M 200.780572 254.5 
L 200.780572 52.9 
" clip-path="url(#p95d1ccc5c8)" style="fill: none; stroke: #3498db; stroke-opacity: 0.45; stroke-width: 1.2"/>
    <path d="M 226.391246 254.5 
L 226.391246 52.9 
" clip-path="url(#p95d1ccc5c8)" style="fill: none; stroke: #3498db; stroke-opacity: 0.45; stroke-width: 1.2"/>
    <path d="M 231.751619 254.5 
L 231.751619 52.9 
" clip-path="url(#p95d1ccc5c8)" style="fill: none; stroke: #3498db; stroke-opacity: 0.45; stroke-width: 1.2"/>
    <path d="M 293.693714 254.5 
L 293.693714 52.9 
" clip-path="url(#p95d1ccc5c8)" style="fill: none; stroke: #3498db; stroke-opacity: 0.45; stroke-width: 1.2"/>
    <path d="M 296.969498 254.5 
L 296.969498 52.9 
" clip-path="url(#p95d1ccc5c8)" style="fill: none; stroke: #3498db; stroke-opacity: 0.45; stroke-width: 1.2"/>
    <path d="M 301.138677 254.5 
L 301.138677 52.9 
" clip-path="url(#p95d1ccc5c8)" style="fill: none; stroke: #3498db; stroke-opacity: 0.45; stroke-width: 1.2"/>
    <path d="M 311.561626 254.5 
L 311.561626 52.9 
" clip-path="url(#p95d1ccc5c8)" style="fill: none; stroke: #3498db; stroke-opacity: 0.45; stroke-width: 1.2"/>
    <path d="M 314.241813 254.5 
L 314.241813 52.9 
" clip-path="url(#p95d1ccc5c8)" style="fill: none; stroke: #3498db; stroke-opacity: 0.45; stroke-width: 1.2"/>
    <path d="M 317.517597 254.5 
L 317.517597 52.9 
" clip-path="url(#p95d1ccc5c8)" style="fill: none; stroke: #3498db; stroke-opacity: 0.45; stroke-width: 1.2"/>
    <path d="M 324.069164 254.5 
L 324.069164 52.9 
" clip-path="url(#p95d1ccc5c8)" style="fill: none; stroke: #3498db; stroke-opacity: 0.45; stroke-width: 1.2"/>
    <path d="M 335.981106 254.5 
L 335.981106 52.9 
" clip-path="url(#p95d1ccc5c8)" style="fill: none; stroke: #3498db; stroke-opacity: 0.45; stroke-width: 1.2"/>
    <path d="M 342.234875 254.5 
L 342.234875 52.9 
" clip-path="url(#p95d1ccc5c8)" style="fill: none; stroke: #3498db; stroke-opacity: 0.45; stroke-width: 1.2"/>
    <path d="M 344.021666 254.5 
L 344.021666 52.9 
" clip-path="url(#p95d1ccc5c8)" style="fill: none; stroke: #3498db; stroke-opacity: 0.45; stroke-width: 1.2"/>
    <path d="M 353.551219 254.5 
L 353.551219 52.9 
" clip-path="url(#p95d1ccc5c8)" style="fill: none; stroke: #3498db; stroke-opacity: 0.45; stroke-width: 1.2"/>
    <path d="M 362.485175 254.5 
L 362.485175 52.9 
" clip-path="url(#p95d1ccc5c8)" style="fill: none; stroke: #3498db; stroke-opacity: 0.45; stroke-width: 1.2"/>
    <path d="M 367.54775 254.5 
L 367.54775 52.9 
" clip-path="url(#p95d1ccc5c8)" style="fill: none; stroke: #3498db; stroke-opacity: 0.45; stroke-width: 1.2"/>
    <path d="M 368.441146 254.5 
L 368.441146 52.9 
" clip-path="url(#p95d1ccc5c8)" style="fill: none; stroke: #3498db; stroke-opacity: 0.45; stroke-width: 1.2"/>
    <path d="M 372.312527 254.5 
L 372.312527 52.9 
" clip-path="url(#p95d1ccc5c8)" style="fill: none; stroke: #3498db; stroke-opacity: 0.45; stroke-width: 1.2"/>
    <path d="M 374.694915 254.5 
L 374.694915 52.9 
" clip-path="url(#p95d1ccc5c8)" style="fill: none; stroke: #3498db; stroke-opacity: 0.45; stroke-width: 1.2"/>
    <path d="M 377.077303 254.5 
L 377.077303 52.9 
" clip-path="url(#p95d1ccc5c8)" style="fill: none; stroke: #3498db; stroke-opacity: 0.45; stroke-width: 1.2"/>
    <path d="M 378.268497 254.5 
L 378.268497 52.9 
" clip-path="url(#p95d1ccc5c8)" style="fill: none; stroke: #3498db; stroke-opacity: 0.45; stroke-width: 1.2"/>
    <path d="M 383.926669 254.5 
L 383.926669 52.9 
" clip-path="url(#p95d1ccc5c8)" style="fill: none; stroke: #3498db; stroke-opacity: 0.45; stroke-width: 1.2"/>
    <path d="M 384.522267 254.5 
L 384.522267 52.9 
" clip-path="url(#p95d1ccc5c8)" style="fill: none; stroke: #3498db; stroke-opacity: 0.45; stroke-width: 1.2"/>
    <path d="M 392.562827 254.5 
L 392.562827 52.9 
" clip-path="url(#p95d1ccc5c8)" style="fill: none; stroke: #3498db; stroke-opacity: 0.45; stroke-width: 1.2"/>
    <path d="M 404.17697 254.5 
L 404.17697 52.9 
" clip-path="url(#p95d1ccc5c8)" style="fill: none; stroke: #3498db; stroke-opacity: 0.45; stroke-width: 1.2"/>
    <path d="M 406.261559 254.5 
L 406.261559 52.9 
" clip-path="url(#p95d1ccc5c8)" style="fill: none; stroke: #3498db; stroke-opacity: 0.45; stroke-width: 1.2"/>
    <path d="M 440.210592 254.5 
L 440.210592 52.9 
" clip-path="url(#p95d1ccc5c8)" style="fill: none; stroke: #3498db; stroke-opacity: 0.45; stroke-width: 1.2"/>
    <path d="M 443.784174 254.5 
L 443.784174 52.9 
" clip-path="url(#p95d1ccc5c8)" style="fill: none; stroke: #3498db; stroke-opacity: 0.45; stroke-width: 1.2"/>
    <path d="M 452.420332 254.5 
L 452.420332 52.9 
" clip-path="url(#p95d1ccc5c8)" style="fill: none; stroke: #3498db; stroke-opacity: 0.45; stroke-width: 1.2"/>
    <path d="M 457.185108 254.5 
L 457.185108 52.9 
" clip-path="url(#p95d1ccc5c8)" style="fill: none; stroke: #3498db; stroke-opacity: 0.45; stroke-width: 1.2"/>
    <path d="M 459.269698 254.5 
L 459.269698 52.9 
" clip-path="url(#p95d1ccc5c8)" style="fill: none; stroke: #3498db; stroke-opacity: 0.45; stroke-width: 1.2"/>
    <path d="M 469.09705 254.5 
L 469.09705 52.9 
" clip-path="url(#p95d1ccc5c8)" style="fill: none; stroke: #3498db; stroke-opacity: 0.45; stroke-width: 1.2"/>
    <path d="M 481.30679 254.5 
L 481.30679 52.9 
" clip-path="url(#p95d1ccc5c8)" style="fill: none; stroke: #3498db; stroke-opacity: 0.45; stroke-width: 1.2"/>
    <path d="M 487.858357 254.5 
L 487.858357 52.9 
" clip-path="url(#p95d1ccc5c8)" style="fill: none; stroke: #3498db; stroke-opacity: 0.45; stroke-width: 1.2"/>
    <path d="M 489.645148 254.5 
L 489.645148 52.9 
" clip-path="url(#p95d1ccc5c8)" style="fill: none; stroke: #3498db; stroke-opacity: 0.45; stroke-width: 1.2"/>
    <path d="M 495.601119 254.5 
L 495.601119 52.9 
" clip-path="url(#p95d1ccc5c8)" style="fill: none; stroke: #3498db; stroke-opacity: 0.45; stroke-width: 1.2"/>
    <path d="M 497.38791 254.5 
L 497.38791 52.9 
" clip-path="url(#p95d1ccc5c8)" style="fill: none; stroke: #3498db; stroke-opacity: 0.45; stroke-width: 1.2"/>
   </g>
   <g id="patch_17">
    <path d="M 53.0725 264.58 
L 53.0725 42.82 
" style="fill: none; stroke: #000000; stroke-width: 1.2; stroke-linejoin: miter; stroke-linecap: square"/>
   </g>
   <g id="patch_18">
    <path d="M 499.4725 264.58 
L 499.4725 42.82 
" style="fill: none; stroke: #000000; stroke-width: 1.2; stroke-linejoin: miter; stroke-linecap: square"/>
   </g>
   <g id="patch_19">
    <path d="M 53.0725 264.58 
L 499.4725 264.58 
" style="fill: none; stroke: #000000; stroke-width: 1.2; stroke-linejoin: miter; stroke-linecap: square"/>
   </g>
   <g id="patch_20">
    <path d="M 53.0725 42.82 
L 499.4725 42.82 
" style="fill: none; stroke: #000000; stroke-width: 1.2; stroke-linejoin: miter; stroke-linecap: square"/>
   </g>
  </g>
  <g id="legend_1">
   <g id="line2d_26">
    <path d="M 105.55625 19.4525 
L 121.55625 19.4525 
L 137.55625 19.4525 
" style="fill: none; stroke: #18212b; stroke-opacity: 0.75; stroke-width: 1.2; stroke-linecap: square"/>
   </g>
   <g id="text_15">
    <!-- Ground Truth -->
    <g transform="translate(150.35625 25.0525) scale(0.16 -0.16)">
     <defs>
      <path id="ArialMT-47" d="M 2638 1797 
L 2638 2334 
L 4578 2338 
L 4578 638 
Q 4131 281 3656 101 
Q 3181 -78 2681 -78 
Q 2006 -78 1454 211 
Q 903 500 622 1047 
Q 341 1594 341 2269 
Q 341 2938 620 3517 
Q 900 4097 1425 4378 
Q 1950 4659 2634 4659 
Q 3131 4659 3532 4498 
Q 3934 4338 4162 4050 
Q 4391 3763 4509 3300 
L 3963 3150 
Q 3859 3500 3706 3700 
Q 3553 3900 3268 4020 
Q 2984 4141 2638 4141 
Q 2222 4141 1919 4014 
Q 1616 3888 1430 3681 
Q 1244 3475 1141 3228 
Q 966 2803 966 2306 
Q 966 1694 1177 1281 
Q 1388 869 1791 669 
Q 2194 469 2647 469 
Q 3041 469 3416 620 
Q 3791 772 3984 944 
L 3984 1797 
L 2638 1797 
z
" transform="scale(0.015625)"/>
      <path id="ArialMT-72" d="M 416 0 
L 416 3319 
L 922 3319 
L 922 2816 
Q 1116 3169 1280 3281 
Q 1444 3394 1641 3394 
Q 1925 3394 2219 3213 
L 2025 2691 
Q 1819 2813 1613 2813 
Q 1428 2813 1281 2702 
Q 1134 2591 1072 2394 
Q 978 2094 978 1738 
L 978 0 
L 416 0 
z
" transform="scale(0.015625)"/>
      <path id="ArialMT-6f" d="M 213 1659 
Q 213 2581 725 3025 
Q 1153 3394 1769 3394 
Q 2453 3394 2887 2945 
Q 3322 2497 3322 1706 
Q 3322 1066 3130 698 
Q 2938 331 2570 128 
Q 2203 -75 1769 -75 
Q 1072 -75 642 372 
Q 213 819 213 1659 
z
M 791 1659 
Q 791 1022 1069 705 
Q 1347 388 1769 388 
Q 2188 388 2466 706 
Q 2744 1025 2744 1678 
Q 2744 2294 2464 2611 
Q 2184 2928 1769 2928 
Q 1347 2928 1069 2612 
Q 791 2297 791 1659 
z
" transform="scale(0.015625)"/>
      <path id="ArialMT-75" d="M 2597 0 
L 2597 488 
Q 2209 -75 1544 -75 
Q 1250 -75 995 37 
Q 741 150 617 320 
Q 494 491 444 738 
Q 409 903 409 1263 
L 409 3319 
L 972 3319 
L 972 1478 
Q 972 1038 1006 884 
Q 1059 663 1231 536 
Q 1403 409 1656 409 
Q 1909 409 2131 539 
Q 2353 669 2445 892 
Q 2538 1116 2538 1541 
L 2538 3319 
L 3100 3319 
L 3100 0 
L 2597 0 
z
" transform="scale(0.015625)"/>
      <path id="ArialMT-6e" d="M 422 0 
L 422 3319 
L 928 3319 
L 928 2847 
Q 1294 3394 1984 3394 
Q 2284 3394 2536 3286 
Q 2788 3178 2913 3003 
Q 3038 2828 3088 2588 
Q 3119 2431 3119 2041 
L 3119 0 
L 2556 0 
L 2556 2019 
Q 2556 2363 2490 2533 
Q 2425 2703 2258 2804 
Q 2091 2906 1866 2906 
Q 1506 2906 1245 2678 
Q 984 2450 984 1813 
L 984 0 
L 422 0 
z
" transform="scale(0.015625)"/>
      <path id="ArialMT-64" d="M 2575 0 
L 2575 419 
Q 2259 -75 1647 -75 
Q 1250 -75 917 144 
Q 584 363 401 755 
Q 219 1147 219 1656 
Q 219 2153 384 2558 
Q 550 2963 881 3178 
Q 1213 3394 1622 3394 
Q 1922 3394 2156 3267 
Q 2391 3141 2538 2938 
L 2538 4581 
L 3097 4581 
L 3097 0 
L 2575 0 
z
M 797 1656 
Q 797 1019 1065 703 
Q 1334 388 1700 388 
Q 2069 388 2326 689 
Q 2584 991 2584 1609 
Q 2584 2291 2321 2609 
Q 2059 2928 1675 2928 
Q 1300 2928 1048 2622 
Q 797 2316 797 1656 
z
" transform="scale(0.015625)"/>
      <path id="ArialMT-20" transform="scale(0.015625)"/>
      <path id="ArialMT-54" d="M 1659 0 
L 1659 4041 
L 150 4041 
L 150 4581 
L 3781 4581 
L 3781 4041 
L 2266 4041 
L 2266 0 
L 1659 0 
z
" transform="scale(0.015625)"/>
      <path id="ArialMT-74" d="M 1650 503 
L 1731 6 
Q 1494 -44 1306 -44 
Q 1000 -44 831 53 
Q 663 150 594 308 
Q 525 466 525 972 
L 525 2881 
L 113 2881 
L 113 3319 
L 525 3319 
L 525 4141 
L 1084 4478 
L 1084 3319 
L 1650 3319 
L 1650 2881 
L 1084 2881 
L 1084 941 
Q 1084 700 1114 631 
Q 1144 563 1211 522 
Q 1278 481 1403 481 
Q 1497 481 1650 503 
z
" transform="scale(0.015625)"/>
      <path id="ArialMT-68" d="M 422 0 
L 422 4581 
L 984 4581 
L 984 2938 
Q 1378 3394 1978 3394 
Q 2347 3394 2619 3248 
Q 2891 3103 3008 2847 
Q 3125 2591 3125 2103 
L 3125 0 
L 2563 0 
L 2563 2103 
Q 2563 2525 2380 2717 
Q 2197 2909 1863 2909 
Q 1613 2909 1392 2779 
Q 1172 2650 1078 2428 
Q 984 2206 984 1816 
L 984 0 
L 422 0 
z
" transform="scale(0.015625)"/>
     </defs>
     <use xlink:href="#ArialMT-47"/>
     <use xlink:href="#ArialMT-72" x="77.783203"/>
     <use xlink:href="#ArialMT-6f" x="111.083984"/>
     <use xlink:href="#ArialMT-75" x="166.699219"/>
     <use xlink:href="#ArialMT-6e" x="222.314453"/>
     <use xlink:href="#ArialMT-64" x="277.929688"/>
     <use xlink:href="#ArialMT-20" x="333.544922"/>
     <use xlink:href="#ArialMT-54" x="359.578125"/>
     <use xlink:href="#ArialMT-72" x="416.912109"/>
     <use xlink:href="#ArialMT-75" x="450.212891"/>
     <use xlink:href="#ArialMT-74" x="505.828125"/>
     <use xlink:href="#ArialMT-68" x="533.611328"/>
    </g>
   </g>
   <g id="patch_21">
    <path d="M 276.62375 25.0525 
L 308.62375 25.0525 
L 308.62375 13.8525 
L 276.62375 13.8525 
z
" style="fill: #3498db; opacity: 0.45"/>
   </g>
   <g id="text_16">
    <!-- Masked Region -->
    <g transform="translate(321.42375 25.0525) scale(0.16 -0.16)">
     <defs>
      <path id="ArialMT-4d" d="M 475 0 
L 475 4581 
L 1388 4581 
L 2472 1338 
Q 2622 884 2691 659 
Q 2769 909 2934 1394 
L 4031 4581 
L 4847 4581 
L 4847 0 
L 4263 0 
L 4263 3834 
L 2931 0 
L 2384 0 
L 1059 3900 
L 1059 0 
L 475 0 
z
" transform="scale(0.015625)"/>
      <path id="ArialMT-61" d="M 2588 409 
Q 2275 144 1986 34 
Q 1697 -75 1366 -75 
Q 819 -75 525 192 
Q 231 459 231 875 
Q 231 1119 342 1320 
Q 453 1522 633 1644 
Q 813 1766 1038 1828 
Q 1203 1872 1538 1913 
Q 2219 1994 2541 2106 
Q 2544 2222 2544 2253 
Q 2544 2597 2384 2738 
Q 2169 2928 1744 2928 
Q 1347 2928 1158 2789 
Q 969 2650 878 2297 
L 328 2372 
Q 403 2725 575 2942 
Q 747 3159 1072 3276 
Q 1397 3394 1825 3394 
Q 2250 3394 2515 3294 
Q 2781 3194 2906 3042 
Q 3031 2891 3081 2659 
Q 3109 2516 3109 2141 
L 3109 1391 
Q 3109 606 3145 398 
Q 3181 191 3288 0 
L 2700 0 
Q 2613 175 2588 409 
z
M 2541 1666 
Q 2234 1541 1622 1453 
Q 1275 1403 1131 1340 
Q 988 1278 909 1158 
Q 831 1038 831 891 
Q 831 666 1001 516 
Q 1172 366 1500 366 
Q 1825 366 2078 508 
Q 2331 650 2450 897 
Q 2541 1088 2541 1459 
L 2541 1666 
z
" transform="scale(0.015625)"/>
      <path id="ArialMT-6b" d="M 425 0 
L 425 4581 
L 988 4581 
L 988 1969 
L 2319 3319 
L 3047 3319 
L 1778 2088 
L 3175 0 
L 2481 0 
L 1384 1697 
L 988 1316 
L 988 0 
L 425 0 
z
" transform="scale(0.015625)"/>
      <path id="ArialMT-65" d="M 2694 1069 
L 3275 997 
Q 3138 488 2766 206 
Q 2394 -75 1816 -75 
Q 1088 -75 661 373 
Q 234 822 234 1631 
Q 234 2469 665 2931 
Q 1097 3394 1784 3394 
Q 2450 3394 2872 2941 
Q 3294 2488 3294 1666 
Q 3294 1616 3291 1516 
L 816 1516 
Q 847 969 1125 678 
Q 1403 388 1819 388 
Q 2128 388 2347 550 
Q 2566 713 2694 1069 
z
M 847 1978 
L 2700 1978 
Q 2663 2397 2488 2606 
Q 2219 2931 1791 2931 
Q 1403 2931 1139 2672 
Q 875 2413 847 1978 
z
" transform="scale(0.015625)"/>
      <path id="ArialMT-52" d="M 503 0 
L 503 4581 
L 2534 4581 
Q 3147 4581 3465 4457 
Q 3784 4334 3975 4021 
Q 4166 3709 4166 3331 
Q 4166 2844 3850 2509 
Q 3534 2175 2875 2084 
Q 3116 1969 3241 1856 
Q 3506 1613 3744 1247 
L 4541 0 
L 3778 0 
L 3172 953 
Q 2906 1366 2734 1584 
Q 2563 1803 2427 1890 
Q 2291 1978 2150 2013 
Q 2047 2034 1813 2034 
L 1109 2034 
L 1109 0 
L 503 0 
z
M 1109 2559 
L 2413 2559 
Q 2828 2559 3062 2645 
Q 3297 2731 3419 2920 
Q 3541 3109 3541 3331 
Q 3541 3656 3305 3865 
Q 3069 4075 2559 4075 
L 1109 4075 
L 1109 2559 
z
" transform="scale(0.015625)"/>
      <path id="ArialMT-67" d="M 319 -275 
L 866 -356 
Q 900 -609 1056 -725 
Q 1266 -881 1628 -881 
Q 2019 -881 2231 -725 
Q 2444 -569 2519 -288 
Q 2563 -116 2559 434 
Q 2191 0 1641 0 
Q 956 0 581 494 
Q 206 988 206 1678 
Q 206 2153 378 2554 
Q 550 2956 876 3175 
Q 1203 3394 1644 3394 
Q 2231 3394 2613 2919 
L 2613 3319 
L 3131 3319 
L 3131 450 
Q 3131 -325 2973 -648 
Q 2816 -972 2473 -1159 
Q 2131 -1347 1631 -1347 
Q 1038 -1347 672 -1080 
Q 306 -813 319 -275 
z
M 784 1719 
Q 784 1066 1043 766 
Q 1303 466 1694 466 
Q 2081 466 2343 764 
Q 2606 1063 2606 1700 
Q 2606 2309 2336 2618 
Q 2066 2928 1684 2928 
Q 1309 2928 1046 2623 
Q 784 2319 784 1719 
z
" transform="scale(0.015625)"/>
     </defs>
     <use xlink:href="#ArialMT-4d"/>
     <use xlink:href="#ArialMT-61" x="83.300781"/>
     <use xlink:href="#ArialMT-73" x="138.916016"/>
     <use xlink:href="#ArialMT-6b" x="188.916016"/>
     <use xlink:href="#ArialMT-65" x="238.916016"/>
     <use xlink:href="#ArialMT-64" x="294.53125"/>
     <use xlink:href="#ArialMT-20" x="350.146484"/>
     <use xlink:href="#ArialMT-52" x="377.929688"/>
     <use xlink:href="#ArialMT-65" x="450.146484"/>
     <use xlink:href="#ArialMT-67" x="505.761719"/>
     <use xlink:href="#ArialMT-69" x="561.376953"/>
     <use xlink:href="#ArialMT-6f" x="583.59375"/>
     <use xlink:href="#ArialMT-6e" x="639.208984"/>
    </g>
   </g>
  </g>
 </g>
 <defs>
  <clipPath id="p95d1ccc5c8">
   <rect x="53.0725" y="42.82" width="446.4" height="221.76"/>
  </clipPath>
 </defs>
</svg>
